STARTFONT 2.1
FONT -FontForge-Eras Bold ITC-Book-R-Normal--18-170-75-75-P-108-ISO10646-1
SIZE 17 75 75
FONTBOUNDINGBOX 26 22 -3 -5
COMMENT "Generated by fontforge, http://fontforge.sourceforge.net"
COMMENT "Typeface: Copyright (c)1995 International Typeface Corporation. Data: Copyright (c) 1995 Microsoft Corportation. All rights reserved."
STARTPROPERTIES 40
FOUNDRY "FontForge"
FAMILY_NAME "Eras Bold ITC"
WEIGHT_NAME "Book"
SLANT "R"
SETWIDTH_NAME "Normal"
ADD_STYLE_NAME ""
PIXEL_SIZE 18
POINT_SIZE 170
RESOLUTION_X 75
RESOLUTION_Y 75
SPACING "P"
AVERAGE_WIDTH 108
CHARSET_REGISTRY "ISO10646"
CHARSET_ENCODING "1"
FONTNAME_REGISTRY ""
CHARSET_COLLECTIONS "Symbol ISO10646-1"
FONT_NAME "ErasITC-Bold"
FACE_NAME "Eras Bold ITC"
COPYRIGHT "Typeface: Copyright (c)1995 International Typeface Corporation. Data: Copyright (c) 1995 Microsoft Corportation. All rights reserved."
FONT_VERSION "1.01"
FONT_ASCENT 14
FONT_DESCENT 4
UNDERLINE_POSITION -2
UNDERLINE_THICKNESS 2
X_HEIGHT 8
CAP_HEIGHT 11
RAW_ASCENT 799
RAW_DESCENT 200
NORM_SPACE 5
RELATIVE_WEIGHT 40
RELATIVE_SETWIDTH 50
SUPERSCRIPT_X 0
SUPERSCRIPT_Y 8
SUPERSCRIPT_SIZE 11
SUBSCRIPT_X 0
SUBSCRIPT_Y 2
SUBSCRIPT_SIZE 11
FIGURE_WIDTH 12
AVG_LOWERCASE_WIDTH 106
AVG_UPPERCASE_WIDTH 130
ENDPROPERTIES
CHARS 250
STARTCHAR space
ENCODING 32
SWIDTH 250 0
DWIDTH 5 0
BBX 1 1 0 0
BITMAP
00
ENDCHAR
STARTCHAR exclam
ENCODING 33
SWIDTH 354 0
DWIDTH 6 0
BBX 4 12 1 0
BITMAP
F0
F0
F0
F0
E0
E0
E0
E0
00
E0
E0
E0
ENDCHAR
STARTCHAR quotedbl
ENCODING 34
SWIDTH 396 0
DWIDTH 7 0
BBX 5 4 1 8
BITMAP
D8
D8
D8
D8
ENDCHAR
STARTCHAR numbersign
ENCODING 35
SWIDTH 651 0
DWIDTH 12 0
BBX 11 12 1 0
BITMAP
0CC0
0CC0
1980
FFE0
FFE0
1980
3300
FFE0
FFE0
3300
6600
6600
ENDCHAR
STARTCHAR dollar
ENCODING 36
SWIDTH 651 0
DWIDTH 12 0
BBX 8 16 2 -2
BITMAP
1C
1C
3E
7F
F1
F0
F8
7C
3E
1F
0F
8F
FE
7C
38
38
ENDCHAR
STARTCHAR percent
ENCODING 37
SWIDTH 904 0
DWIDTH 16 0
BBX 15 12 0 0
BITMAP
3860
7CE0
CCC0
CCC0
CD9C
CDBE
FB66
7366
0666
0666
0C7C
0C38
ENDCHAR
STARTCHAR ampersand
ENCODING 38
SWIDTH 767 0
DWIDTH 14 0
BBX 12 12 1 0
BITMAP
0F80
3F80
3F80
3800
1800
7C00
FE70
E7F0
E3E0
FFE0
7FE0
3E70
ENDCHAR
STARTCHAR quotesingle
ENCODING 39
SWIDTH 228 0
DWIDTH 4 0
BBX 2 4 1 8
BITMAP
C0
C0
C0
C0
ENDCHAR
STARTCHAR parenleft
ENCODING 40
SWIDTH 372 0
DWIDTH 7 0
BBX 5 16 2 -4
BITMAP
38
70
70
70
70
E0
E0
E0
E0
E0
E0
E0
E0
E0
70
70
ENDCHAR
STARTCHAR parenright
ENCODING 41
SWIDTH 367 0
DWIDTH 7 0
BBX 5 16 0 -4
BITMAP
70
70
38
38
38
38
38
38
38
38
38
70
70
70
70
E0
ENDCHAR
STARTCHAR asterisk
ENCODING 42
SWIDTH 497 0
DWIDTH 9 0
BBX 8 6 1 6
BITMAP
18
5A
FF
3C
EE
44
ENDCHAR
STARTCHAR plus
ENCODING 43
SWIDTH 651 0
DWIDTH 12 0
BBX 10 10 1 1
BITMAP
0C00
0C00
0C00
0C00
FFC0
FFC0
0C00
0C00
0C00
0C00
ENDCHAR
STARTCHAR comma
ENCODING 44
SWIDTH 294 0
DWIDTH 5 0
BBX 5 4 -1 -2
BITMAP
38
70
60
C0
ENDCHAR
STARTCHAR hyphen
ENCODING 45
SWIDTH 267 0
DWIDTH 5 0
BBX 5 2 0 4
BITMAP
F8
F8
ENDCHAR
STARTCHAR period
ENCODING 46
SWIDTH 294 0
DWIDTH 5 0
BBX 3 3 1 0
BITMAP
E0
E0
E0
ENDCHAR
STARTCHAR slash
ENCODING 47
SWIDTH 443 0
DWIDTH 8 0
BBX 11 16 -2 -4
BITMAP
00E0
00C0
01C0
0180
0380
0300
0600
0600
0C00
0C00
1800
3800
3000
7000
6000
E000
ENDCHAR
STARTCHAR zero
ENCODING 48
SWIDTH 651 0
DWIDTH 12 0
BBX 10 12 1 0
BITMAP
1F00
3F80
7B80
F3C0
F3C0
F3C0
F3C0
F3C0
F3C0
F380
7F00
3E00
ENDCHAR
STARTCHAR one
ENCODING 49
SWIDTH 651 0
DWIDTH 12 0
BBX 5 12 3 0
BITMAP
78
F8
F8
F8
78
78
78
78
78
78
78
78
ENDCHAR
STARTCHAR two
ENCODING 50
SWIDTH 651 0
DWIDTH 12 0
BBX 10 12 1 0
BITMAP
7F00
7FC0
03C0
03C0
0780
0F80
1F00
3E00
7C00
FFC0
FFC0
FFC0
ENDCHAR
STARTCHAR three
ENCODING 51
SWIDTH 651 0
DWIDTH 12 0
BBX 10 12 1 0
BITMAP
3F80
3FC0
7FC0
03C0
3F80
3F00
3F80
03C0
03C0
07C0
FF80
FE00
ENDCHAR
STARTCHAR four
ENCODING 52
SWIDTH 651 0
DWIDTH 12 0
BBX 11 12 1 0
BITMAP
0780
0F80
1F80
3B80
7380
E380
C380
FFE0
FFE0
0780
0780
0780
ENDCHAR
STARTCHAR five
ENCODING 53
SWIDTH 651 0
DWIDTH 12 0
BBX 10 12 1 0
BITMAP
7FC0
7FC0
7800
7800
7F00
7F80
03C0
03C0
03C0
07C0
FF80
FE00
ENDCHAR
STARTCHAR six
ENCODING 54
SWIDTH 651 0
DWIDTH 12 0
BBX 10 12 1 0
BITMAP
0F80
1F00
3E00
3C00
7F00
7F80
F3C0
F3C0
F3C0
F3C0
7F80
3F00
ENDCHAR
STARTCHAR seven
ENCODING 55
SWIDTH 651 0
DWIDTH 12 0
BBX 10 12 1 0
BITMAP
FFC0
FFC0
07C0
0780
0F80
0F00
1E00
1E00
3C00
7C00
7800
F800
ENDCHAR
STARTCHAR eight
ENCODING 56
SWIDTH 651 0
DWIDTH 12 0
BBX 10 12 1 0
BITMAP
1E00
3F00
7380
7380
7380
3F00
7F80
F3C0
F3C0
F3C0
7F80
3F00
ENDCHAR
STARTCHAR nine
ENCODING 57
SWIDTH 651 0
DWIDTH 12 0
BBX 10 12 1 0
BITMAP
1F00
7F80
F3C0
F3C0
F3C0
F3C0
7F80
3F80
0F00
1F00
3E00
7C00
ENDCHAR
STARTCHAR colon
ENCODING 58
SWIDTH 294 0
DWIDTH 5 0
BBX 3 9 1 0
BITMAP
E0
E0
E0
00
00
00
E0
E0
E0
ENDCHAR
STARTCHAR semicolon
ENCODING 59
SWIDTH 294 0
DWIDTH 5 0
BBX 5 11 -1 -2
BITMAP
38
38
38
00
00
00
00
38
70
60
C0
ENDCHAR
STARTCHAR less
ENCODING 60
SWIDTH 497 0
DWIDTH 9 0
BBX 8 11 1 1
BITMAP
01
07
1F
7E
F8
E0
F8
7E
1F
07
01
ENDCHAR
STARTCHAR equal
ENCODING 61
SWIDTH 651 0
DWIDTH 12 0
BBX 10 5 1 4
BITMAP
FFC0
FFC0
0000
FFC0
FFC0
ENDCHAR
STARTCHAR greater
ENCODING 62
SWIDTH 497 0
DWIDTH 9 0
BBX 8 11 1 1
BITMAP
80
E0
F8
7E
1F
07
1F
7E
F8
E0
80
ENDCHAR
STARTCHAR question
ENCODING 63
SWIDTH 521 0
DWIDTH 9 0
BBX 9 12 0 0
BITMAP
7E00
FF80
0780
0780
0F00
1E00
3C00
3800
0000
3800
3800
3800
ENDCHAR
STARTCHAR at
ENCODING 64
SWIDTH 871 0
DWIDTH 16 0
BBX 14 12 1 0
BITMAP
07E0
1FF8
3818
63CC
E7CC
CCCC
CCDC
CFF8
E7F0
7040
7FC0
1F80
ENDCHAR
STARTCHAR A
ENCODING 65
SWIDTH 813 0
DWIDTH 15 0
BBX 15 12 0 0
BITMAP
03E0
03E0
07F0
07F0
0F70
0E78
1FF8
3FF8
383C
781C
781C
F01E
ENDCHAR
STARTCHAR B
ENCODING 66
SWIDTH 709 0
DWIDTH 13 0
BBX 11 12 1 0
BITMAP
FFC0
FFE0
F1E0
F1E0
F1E0
FFC0
FFC0
F1E0
F1E0
F1E0
FFC0
FF80
ENDCHAR
STARTCHAR C
ENCODING 67
SWIDTH 670 0
DWIDTH 12 0
BBX 10 12 1 0
BITMAP
0FC0
3FC0
7C00
7800
F000
F000
F000
F000
F800
7800
3FC0
1FC0
ENDCHAR
STARTCHAR D
ENCODING 68
SWIDTH 773 0
DWIDTH 14 0
BBX 12 12 1 0
BITMAP
FF80
FFE0
FFE0
F1F0
F0F0
F0F0
F0F0
F0F0
F1E0
FFE0
FFC0
FF80
ENDCHAR
STARTCHAR E
ENCODING 69
SWIDTH 659 0
DWIDTH 12 0
BBX 10 12 1 0
BITMAP
FFC0
FFC0
FFC0
F000
FF80
FF80
FF80
F000
F000
FFC0
FFC0
FFC0
ENDCHAR
STARTCHAR F
ENCODING 70
SWIDTH 613 0
DWIDTH 11 0
BBX 10 12 1 0
BITMAP
FFC0
FFC0
FFC0
F000
F000
FF80
FF80
FF80
F000
F000
F000
F000
ENDCHAR
STARTCHAR G
ENCODING 71
SWIDTH 780 0
DWIDTH 14 0
BBX 11 12 1 0
BITMAP
0FE0
3FE0
7FE0
7C00
F800
F3E0
F3E0
F3E0
F8E0
7FE0
7FE0
1FE0
ENDCHAR
STARTCHAR H
ENCODING 72
SWIDTH 818 0
DWIDTH 15 0
BBX 13 12 1 0
BITMAP
F078
F078
F078
F078
FFF8
FFF8
FFF8
F078
F078
F078
F078
F078
ENDCHAR
STARTCHAR I
ENCODING 73
SWIDTH 341 0
DWIDTH 6 0
BBX 4 12 1 0
BITMAP
F0
F0
F0
F0
F0
F0
F0
F0
F0
F0
F0
F0
ENDCHAR
STARTCHAR J
ENCODING 74
SWIDTH 516 0
DWIDTH 9 0
BBX 8 12 0 0
BITMAP
0F
0F
0F
0F
0F
0F
0F
0F
0F
1F
FE
FC
ENDCHAR
STARTCHAR K
ENCODING 75
SWIDTH 765 0
DWIDTH 14 0
BBX 13 12 1 0
BITMAP
F0F8
F1F0
F3E0
F3C0
F780
FF00
F780
F7C0
F3C0
F1E0
F1F0
F0F8
ENDCHAR
STARTCHAR L
ENCODING 76
SWIDTH 585 0
DWIDTH 11 0
BBX 10 12 1 0
BITMAP
F000
F000
F000
F000
F000
F000
F000
F000
F000
FFC0
FFC0
FFC0
ENDCHAR
STARTCHAR M
ENCODING 77
SWIDTH 920 0
DWIDTH 17 0
BBX 15 12 1 0
BITMAP
FC3E
FC3E
FC7E
EE6E
EEEE
EEEE
EEEE
EFCE
EFCE
E7CE
E78E
E78E
ENDCHAR
STARTCHAR N
ENCODING 78
SWIDTH 820 0
DWIDTH 15 0
BBX 13 12 1 0
BITMAP
F038
F838
FC38
FC38
FE38
EF38
E7B8
E3F8
E1F8
E1F8
E0F8
E078
ENDCHAR
STARTCHAR O
ENCODING 79
SWIDTH 866 0
DWIDTH 16 0
BBX 14 12 1 0
BITMAP
0FC0
3FF0
7C78
787C
F03C
F03C
F03C
F03C
F878
78F8
3FF0
0FC0
ENDCHAR
STARTCHAR P
ENCODING 80
SWIDTH 638 0
DWIDTH 11 0
BBX 10 12 1 0
BITMAP
FF00
FF80
F3C0
F3C0
F3C0
F3C0
FF80
F700
F000
F000
F000
F000
ENDCHAR
STARTCHAR Q
ENCODING 81
SWIDTH 882 0
DWIDTH 16 0
BBX 15 12 1 0
BITMAP
0FC0
3FF0
7C78
7878
F03C
F03C
F03C
F03C
F878
78FA
3FFC
0FF0
ENDCHAR
STARTCHAR R
ENCODING 82
SWIDTH 700 0
DWIDTH 13 0
BBX 11 12 1 0
BITMAP
FF80
FFC0
F1E0
F1E0
F1E0
F3C0
F780
F780
F380
F3C0
F1C0
F1E0
ENDCHAR
STARTCHAR S
ENCODING 83
SWIDTH 552 0
DWIDTH 10 0
BBX 8 12 1 0
BITMAP
1F
3F
78
78
78
3C
1E
0F
0F
0F
FE
FC
ENDCHAR
STARTCHAR T
ENCODING 84
SWIDTH 634 0
DWIDTH 11 0
BBX 10 12 0 0
BITMAP
FFC0
FFC0
1E00
1E00
1E00
1E00
1E00
1E00
1E00
1E00
1E00
1E00
ENDCHAR
STARTCHAR U
ENCODING 85
SWIDTH 777 0
DWIDTH 14 0
BBX 12 12 1 0
BITMAP
F0F0
F0F0
F0F0
F0F0
F0F0
F0F0
F0F0
F0F0
F0F0
F9F0
7FE0
1F80
ENDCHAR
STARTCHAR V
ENCODING 86
SWIDTH 753 0
DWIDTH 14 0
BBX 14 12 0 0
BITMAP
F03C
7838
7878
7870
38F0
38E0
3DE0
1DC0
1DC0
1F80
0F80
0F00
ENDCHAR
STARTCHAR W
ENCODING 87
SWIDTH 1086 0
DWIDTH 20 0
BBX 18 12 1 0
BITMAP
F1E1C0
F1E3C0
71E380
73F380
7BF380
7B7700
3B7700
3B7700
3F7E00
3F7E00
3E3E00
1E3C00
ENDCHAR
STARTCHAR X
ENCODING 88
SWIDTH 685 0
DWIDTH 12 0
BBX 13 12 -1 0
BITMAP
7C78
3CF0
1EE0
1FE0
0FC0
0780
0F80
1FC0
1DE0
3DE0
78F0
F0F8
ENDCHAR
STARTCHAR Y
ENCODING 89
SWIDTH 645 0
DWIDTH 12 0
BBX 13 12 0 0
BITMAP
F078
70F0
79E0
39C0
1FC0
1F80
0F00
0F00
0F00
0F00
0F00
0F00
ENDCHAR
STARTCHAR Z
ENCODING 90
SWIDTH 666 0
DWIDTH 12 0
BBX 11 12 0 0
BITMAP
7FE0
7FE0
7FE0
03C0
0780
0F00
1E00
3C00
7800
FFC0
FFC0
FFC0
ENDCHAR
STARTCHAR bracketleft
ENCODING 91
SWIDTH 372 0
DWIDTH 7 0
BBX 6 16 1 -4
BITMAP
FC
FC
E0
E0
E0
E0
E0
E0
E0
E0
E0
E0
E0
E0
FC
FC
ENDCHAR
STARTCHAR backslash
ENCODING 92
SWIDTH 433 0
DWIDTH 8 0
BBX 9 16 0 -4
BITMAP
C000
E000
6000
6000
3000
3000
1800
1800
0C00
0C00
0E00
0600
0600
0300
0300
0180
ENDCHAR
STARTCHAR bracketright
ENCODING 93
SWIDTH 372 0
DWIDTH 7 0
BBX 6 16 0 -4
BITMAP
FC
FC
1C
1C
1C
1C
1C
1C
1C
1C
1C
1C
1C
1C
FC
FC
ENDCHAR
STARTCHAR asciicircum
ENCODING 94
SWIDTH 498 0
DWIDTH 9 0
BBX 9 6 0 6
BITMAP
3E00
3E00
3600
7700
7300
E380
ENDCHAR
STARTCHAR underscore
ENCODING 95
SWIDTH 497 0
DWIDTH 9 0
BBX 9 2 0 -3
BITMAP
FF80
FF80
ENDCHAR
STARTCHAR grave
ENCODING 96
SWIDTH 500 0
DWIDTH 9 0
BBX 4 2 3 10
BITMAP
E0
70
ENDCHAR
STARTCHAR a
ENCODING 97
SWIDTH 605 0
DWIDTH 11 0
BBX 9 9 1 0
BITMAP
7F00
7F80
0380
0F80
7F80
F380
E380
FB80
7380
ENDCHAR
STARTCHAR b
ENCODING 98
SWIDTH 654 0
DWIDTH 12 0
BBX 10 12 1 0
BITMAP
E000
E000
E000
FF00
FF80
E3C0
E1C0
E1C0
E1C0
F3C0
FF80
EF00
ENDCHAR
STARTCHAR c
ENCODING 99
SWIDTH 505 0
DWIDTH 9 0
BBX 7 9 1 0
BITMAP
3E
7E
F0
E0
E0
E0
F0
7E
3E
ENDCHAR
STARTCHAR d
ENCODING 100
SWIDTH 659 0
DWIDTH 12 0
BBX 10 12 1 0
BITMAP
01C0
01C0
01C0
1FC0
7FC0
71C0
E1C0
E1C0
E1C0
F3C0
7FC0
3DC0
ENDCHAR
STARTCHAR e
ENCODING 101
SWIDTH 591 0
DWIDTH 11 0
BBX 9 9 1 0
BITMAP
3E00
7F00
F380
E380
FF80
E000
E000
7F00
3F00
ENDCHAR
STARTCHAR f
ENCODING 102
SWIDTH 395 0
DWIDTH 7 0
BBX 7 12 1 0
BITMAP
3E
7E
70
FC
FC
70
70
70
70
70
70
70
ENDCHAR
STARTCHAR g
ENCODING 103
SWIDTH 659 0
DWIDTH 12 0
BBX 10 13 1 -4
BITMAP
1F80
3FC0
71C0
E1C0
E1C0
E1C0
F3C0
7FC0
3DC0
01C0
03C0
FF80
FF00
ENDCHAR
STARTCHAR h
ENCODING 104
SWIDTH 680 0
DWIDTH 12 0
BBX 10 12 1 0
BITMAP
E000
E000
E000
EF80
FFC0
F1C0
F1C0
E1C0
E1C0
E1C0
E1C0
E1C0
ENDCHAR
STARTCHAR i
ENCODING 105
SWIDTH 312 0
DWIDTH 6 0
BBX 3 12 1 0
BITMAP
E0
E0
00
E0
E0
E0
E0
E0
E0
E0
E0
E0
ENDCHAR
STARTCHAR j
ENCODING 106
SWIDTH 313 0
DWIDTH 6 0
BBX 6 16 -2 -4
BITMAP
1C
1C
00
1C
1C
1C
1C
1C
1C
1C
1C
1C
1C
3C
FC
F8
ENDCHAR
STARTCHAR k
ENCODING 107
SWIDTH 623 0
DWIDTH 11 0
BBX 10 12 1 0
BITMAP
E000
E000
E000
E3C0
E780
EF00
FE00
EE00
EF00
E780
E780
E3C0
ENDCHAR
STARTCHAR l
ENCODING 108
SWIDTH 309 0
DWIDTH 6 0
BBX 3 12 1 0
BITMAP
E0
E0
E0
E0
E0
E0
E0
E0
E0
E0
E0
E0
ENDCHAR
STARTCHAR m
ENCODING 109
SWIDTH 932 0
DWIDTH 17 0
BBX 15 9 1 0
BITMAP
EF3C
FFFE
F3CE
E38E
E38E
E38E
E38E
E38E
E38E
ENDCHAR
STARTCHAR n
ENCODING 110
SWIDTH 679 0
DWIDTH 12 0
BBX 10 9 1 0
BITMAP
EF80
FFC0
F1C0
E1C0
E1C0
E1C0
E1C0
E1C0
E1C0
ENDCHAR
STARTCHAR o
ENCODING 111
SWIDTH 648 0
DWIDTH 12 0
BBX 10 9 1 0
BITMAP
1F00
7F80
F3C0
E1C0
E1C0
E1C0
F3C0
7F80
3E00
ENDCHAR
STARTCHAR p
ENCODING 112
SWIDTH 656 0
DWIDTH 12 0
BBX 10 13 1 -4
BITMAP
3F00
FF80
FFC0
E1C0
E1C0
E3C0
FFC0
FF80
EF00
E000
E000
E000
E000
ENDCHAR
STARTCHAR q
ENCODING 113
SWIDTH 657 0
DWIDTH 12 0
BBX 9 13 1 -4
BITMAP
1F00
7F80
7F80
F380
E380
E780
FF80
7F80
3B80
0380
0380
0380
0380
ENDCHAR
STARTCHAR r
ENCODING 114
SWIDTH 429 0
DWIDTH 8 0
BBX 7 9 1 0
BITMAP
EE
FE
F0
E0
E0
E0
E0
E0
E0
ENDCHAR
STARTCHAR s
ENCODING 115
SWIDTH 482 0
DWIDTH 9 0
BBX 8 9 0 0
BITMAP
3F
7F
70
78
1E
0F
07
FF
FC
ENDCHAR
STARTCHAR t
ENCODING 116
SWIDTH 425 0
DWIDTH 8 0
BBX 6 12 1 0
BITMAP
10
70
70
FC
FC
70
70
70
70
70
7C
3C
ENDCHAR
STARTCHAR u
ENCODING 117
SWIDTH 656 0
DWIDTH 12 0
BBX 10 9 1 0
BITMAP
E1C0
E1C0
E1C0
E1C0
E1C0
E1C0
F3C0
FFC0
7DC0
ENDCHAR
STARTCHAR v
ENCODING 118
SWIDTH 589 0
DWIDTH 11 0
BBX 11 9 0 0
BITMAP
F1E0
71C0
79C0
7B80
3B80
3B80
3F00
1F00
1E00
ENDCHAR
STARTCHAR w
ENCODING 119
SWIDTH 907 0
DWIDTH 16 0
BBX 16 9 0 0
BITMAP
E38F
638E
77CE
77DC
76DC
36DC
3EF8
3C78
1C70
ENDCHAR
STARTCHAR x
ENCODING 120
SWIDTH 635 0
DWIDTH 11 0
BBX 11 9 0 0
BITMAP
79E0
39C0
3F80
1F00
1F00
3F80
3B80
7BC0
F1E0
ENDCHAR
STARTCHAR y
ENCODING 121
SWIDTH 591 0
DWIDTH 11 0
BBX 12 13 -1 -4
BITMAP
78F0
38E0
3CE0
3DC0
1DC0
1DC0
1F80
0F80
0F00
0F00
1E00
FE00
F800
ENDCHAR
STARTCHAR z
ENCODING 122
SWIDTH 523 0
DWIDTH 9 0
BBX 8 9 0 0
BITMAP
FF
FF
0F
1E
3C
78
F0
FF
FF
ENDCHAR
STARTCHAR braceleft
ENCODING 123
SWIDTH 432 0
DWIDTH 8 0
BBX 6 16 1 -4
BITMAP
3C
7C
70
70
70
70
70
70
E0
70
70
70
70
70
78
38
ENDCHAR
STARTCHAR bar
ENCODING 124
SWIDTH 497 0
DWIDTH 9 0
BBX 3 15 3 -3
BITMAP
E0
E0
E0
E0
E0
E0
E0
E0
E0
E0
E0
E0
E0
E0
E0
ENDCHAR
STARTCHAR braceright
ENCODING 125
SWIDTH 432 0
DWIDTH 8 0
BBX 6 16 1 -4
BITMAP
70
78
38
38
38
38
38
1C
38
38
38
38
38
38
F8
F0
ENDCHAR
STARTCHAR asciitilde
ENCODING 126
SWIDTH 664 0
DWIDTH 12 0
BBX 9 3 2 5
BITMAP
7900
FF80
4F00
ENDCHAR
STARTCHAR nbspace
ENCODING 160
SWIDTH 250 0
DWIDTH 5 0
BBX 1 1 0 0
BITMAP
00
ENDCHAR
STARTCHAR exclamdown
ENCODING 161
SWIDTH 339 0
DWIDTH 6 0
BBX 4 12 1 -3
BITMAP
70
70
70
00
70
70
70
70
F0
F0
F0
F0
ENDCHAR
STARTCHAR cent
ENCODING 162
SWIDTH 651 0
DWIDTH 12 0
BBX 8 13 2 0
BITMAP
1C
1C
3F
7F
F0
E0
E0
E0
F0
7F
3F
1C
1C
ENDCHAR
STARTCHAR sterling
ENCODING 163
SWIDTH 651 0
DWIDTH 12 0
BBX 11 12 1 0
BITMAP
1FC0
3FC0
7C00
7800
7800
FF80
FF80
1C00
1C00
1C20
3FC0
7FC0
ENDCHAR
STARTCHAR currency
ENCODING 164
SWIDTH 651 0
DWIDTH 12 0
BBX 11 10 1 1
BITMAP
2040
FFE0
3F80
71C0
71C0
71C0
71C0
3F80
FFE0
4080
ENDCHAR
STARTCHAR yen
ENCODING 165
SWIDTH 651 0
DWIDTH 12 0
BBX 11 12 1 0
BITMAP
F1E0
71C0
7BC0
3B80
7BC0
7FC0
1E00
7FC0
7FC0
1C00
1C00
1C00
ENDCHAR
STARTCHAR brokenbar
ENCODING 166
SWIDTH 497 0
DWIDTH 9 0
BBX 3 15 3 -3
BITMAP
E0
E0
E0
E0
E0
E0
00
00
00
E0
E0
E0
E0
E0
E0
ENDCHAR
STARTCHAR section
ENCODING 167
SWIDTH 601 0
DWIDTH 11 0
BBX 9 16 1 -4
BITMAP
3F00
7F00
7800
7800
3E00
7F00
EF80
E780
F380
FB80
7F00
3E00
0F00
0F00
FF00
FC00
ENDCHAR
STARTCHAR dieresis
ENCODING 168
SWIDTH 500 0
DWIDTH 9 0
BBX 5 2 2 10
BITMAP
D8
D8
ENDCHAR
STARTCHAR copyright
ENCODING 169
SWIDTH 828 0
DWIDTH 15 0
BBX 14 12 1 0
BITMAP
0FC0
3030
4008
478C
8F84
9804
9804
9F84
CF88
4008
3030
0FC0
ENDCHAR
STARTCHAR ordfeminine
ENCODING 170
SWIDTH 385 0
DWIDTH 7 0
BBX 6 5 0 5
BITMAP
7C
0C
7C
CC
7C
ENDCHAR
STARTCHAR guillemotleft
ENCODING 171
SWIDTH 524 0
DWIDTH 9 0
BBX 8 6 1 1
BITMAP
77
66
EE
EE
77
77
ENDCHAR
STARTCHAR logicalnot
ENCODING 172
SWIDTH 497 0
DWIDTH 9 0
BBX 8 5 1 0
BITMAP
FF
FF
07
07
07
ENDCHAR
STARTCHAR sfthyphen
ENCODING 173
SWIDTH 267 0
DWIDTH 5 0
BBX 5 2 0 4
BITMAP
F8
F8
ENDCHAR
STARTCHAR registered
ENCODING 174
SWIDTH 828 0
DWIDTH 15 0
BBX 14 12 1 0
BITMAP
0FC0
3030
4008
4F8C
8FC4
8CC4
8F84
8D84
CDC8
4008
3030
0FC0
ENDCHAR
STARTCHAR overscore
ENCODING 175
SWIDTH 497 0
DWIDTH 9 0
BBX 9 2 0 12
BITMAP
FF80
FF80
ENDCHAR
STARTCHAR degree
ENCODING 176
SWIDTH 314 0
DWIDTH 6 0
BBX 4 4 1 8
BITMAP
60
90
90
60
ENDCHAR
STARTCHAR plusminus
ENCODING 177
SWIDTH 651 0
DWIDTH 12 0
BBX 10 11 1 1
BITMAP
0C00
0C00
0C00
FFC0
FFC0
0C00
0C00
0C00
0000
FFC0
FFC0
ENDCHAR
STARTCHAR twosuperior
ENCODING 178
SWIDTH 410 0
DWIDTH 7 0
BBX 5 7 1 5
BITMAP
F0
F8
38
70
E0
F8
F8
ENDCHAR
STARTCHAR threesuperior
ENCODING 179
SWIDTH 410 0
DWIDTH 7 0
BBX 5 7 1 5
BITMAP
F0
F8
38
F0
38
F8
F0
ENDCHAR
STARTCHAR acute
ENCODING 180
SWIDTH 500 0
DWIDTH 9 0
BBX 4 2 3 10
BITMAP
F0
E0
ENDCHAR
STARTCHAR mu
ENCODING 181
SWIDTH 651 0
DWIDTH 12 0
BBX 10 13 1 -4
BITMAP
E1C0
E1C0
E1C0
E1C0
E1C0
E3C0
E3C0
FFC0
FDC0
E000
E000
E000
E000
ENDCHAR
STARTCHAR paragraph
ENCODING 182
SWIDTH 651 0
DWIDTH 12 0
BBX 11 16 1 -4
BITMAP
3FE0
FFE0
FD80
FD80
FD80
7D80
3D80
0D80
0D80
0D80
0D80
0D80
0D80
0D80
0D80
0D80
ENDCHAR
STARTCHAR middot
ENCODING 183
SWIDTH 207 0
DWIDTH 4 0
BBX 4 3 0 5
BITMAP
F0
F0
F0
ENDCHAR
STARTCHAR cedilla
ENCODING 184
SWIDTH 500 0
DWIDTH 9 0
BBX 4 2 2 -3
BITMAP
70
E0
ENDCHAR
STARTCHAR onesuperior
ENCODING 185
SWIDTH 410 0
DWIDTH 7 0
BBX 3 7 2 5
BITMAP
60
E0
60
60
60
60
60
ENDCHAR
STARTCHAR ordmasculine
ENCODING 186
SWIDTH 411 0
DWIDTH 7 0
BBX 6 5 1 5
BITMAP
78
FC
CC
FC
78
ENDCHAR
STARTCHAR guillemotright
ENCODING 187
SWIDTH 526 0
DWIDTH 9 0
BBX 8 6 0 1
BITMAP
EE
66
77
66
EE
CC
ENDCHAR
STARTCHAR onequarter
ENCODING 188
SWIDTH 928 0
DWIDTH 17 0
BBX 15 12 2 0
BITMAP
70C0
F180
B180
2300
6300
663C
667C
0CE8
0CFE
18FE
1818
3018
ENDCHAR
STARTCHAR onehalf
ENCODING 189
SWIDTH 928 0
DWIDTH 17 0
BBX 14 12 2 0
BITMAP
70C0
F180
B180
2300
6300
66F8
66FC
0C1C
0C38
1860
18FC
30FC
ENDCHAR
STARTCHAR threequarters
ENCODING 190
SWIDTH 928 0
DWIDTH 17 0
BBX 16 12 1 0
BITMAP
F860
FCC0
1CC0
7980
1D80
FF1E
FB3E
0674
067F
0C7F
0C0C
180C
ENDCHAR
STARTCHAR questiondown
ENCODING 191
SWIDTH 521 0
DWIDTH 9 0
BBX 9 12 0 -3
BITMAP
0E00
0E00
0E00
0000
0E00
1E00
3C00
7800
F000
F000
FF80
3F00
ENDCHAR
STARTCHAR Agrave
ENCODING 192
SWIDTH 813 0
DWIDTH 15 0
BBX 15 15 0 0
BITMAP
0380
01C0
0000
03E0
03E0
07F0
07F0
0F70
0E78
1FF8
3FF8
383C
781C
781C
F01E
ENDCHAR
STARTCHAR Aacute
ENCODING 193
SWIDTH 813 0
DWIDTH 15 0
BBX 15 15 0 0
BITMAP
03C0
0380
0000
03E0
03E0
07F0
07F0
0F70
0E78
1FF8
3FF8
383C
781C
781C
F01E
ENDCHAR
STARTCHAR Acircumflex
ENCODING 194
SWIDTH 813 0
DWIDTH 15 0
BBX 15 15 0 0
BITMAP
0380
06C0
0000
03E0
03E0
07F0
07F0
0F70
0E78
1FF8
3FF8
383C
781C
781C
F01E
ENDCHAR
STARTCHAR Atilde
ENCODING 195
SWIDTH 813 0
DWIDTH 15 0
BBX 15 16 0 0
BITMAP
0640
07C0
0580
0000
03E0
03E0
07F0
07F0
0F70
0E78
1FF8
3FF8
383C
781C
781C
F01E
ENDCHAR
STARTCHAR Adieresis
ENCODING 196
SWIDTH 813 0
DWIDTH 15 0
BBX 15 15 0 0
BITMAP
0360
0360
0000
03E0
03E0
07F0
07F0
0F70
0E78
1FF8
3FF8
383C
781C
781C
F01E
ENDCHAR
STARTCHAR Aring
ENCODING 197
SWIDTH 813 0
DWIDTH 15 0
BBX 15 17 0 0
BITMAP
00C0
0120
0120
00C0
0000
03E0
03E0
07F0
0770
0F70
0E78
1FF8
3FF8
3C3C
783C
783C
F81E
ENDCHAR
STARTCHAR AE
ENCODING 198
SWIDTH 962 0
DWIDTH 17 0
BBX 17 12 -1 0
BITMAP
03FF80
07FF80
077000
0F7000
0F7000
1E7F00
1FFF00
3FF800
3C7800
787800
787F00
F07F00
ENDCHAR
STARTCHAR Ccedilla
ENCODING 199
SWIDTH 670 0
DWIDTH 12 0
BBX 10 16 1 -4
BITMAP
0FC0
3FC0
7C00
7800
F000
F000
F000
F000
F800
7800
3FC0
1FC0
0000
0E00
0E00
1C00
ENDCHAR
STARTCHAR Egrave
ENCODING 200
SWIDTH 659 0
DWIDTH 12 0
BBX 10 15 1 0
BITMAP
1E00
0E00
0000
FFC0
FFC0
FFC0
F000
FF80
FF80
FF80
F000
F000
FFC0
FFC0
FFC0
ENDCHAR
STARTCHAR Eacute
ENCODING 201
SWIDTH 659 0
DWIDTH 12 0
BBX 10 15 1 0
BITMAP
0E00
0E00
0000
FFC0
FFC0
FFC0
F000
FF80
FF80
FF80
F000
F000
FFC0
FFC0
FFC0
ENDCHAR
STARTCHAR Ecircumflex
ENCODING 202
SWIDTH 659 0
DWIDTH 12 0
BBX 10 15 1 0
BITMAP
1E00
1E00
0000
FFC0
FFC0
FFC0
F000
FF80
FF80
FF80
F000
F000
FFC0
FFC0
FFC0
ENDCHAR
STARTCHAR Edieresis
ENCODING 203
SWIDTH 659 0
DWIDTH 12 0
BBX 10 15 1 0
BITMAP
1B00
1B00
0000
FFC0
FFC0
FFC0
F000
FF80
FF80
FF80
F000
F000
FFC0
FFC0
FFC0
ENDCHAR
STARTCHAR Igrave
ENCODING 204
SWIDTH 341 0
DWIDTH 6 0
BBX 4 15 1 0
BITMAP
F0
70
00
F0
F0
F0
F0
F0
F0
F0
F0
F0
F0
F0
F0
ENDCHAR
STARTCHAR Iacute
ENCODING 205
SWIDTH 341 0
DWIDTH 6 0
BBX 5 15 1 0
BITMAP
78
70
00
F0
F0
F0
F0
F0
F0
F0
F0
F0
F0
F0
F0
ENDCHAR
STARTCHAR Icircumflex
ENCODING 206
SWIDTH 341 0
DWIDTH 6 0
BBX 4 15 1 0
BITMAP
F0
F0
00
F0
F0
F0
F0
F0
F0
F0
F0
F0
F0
F0
F0
ENDCHAR
STARTCHAR Idieresis
ENCODING 207
SWIDTH 341 0
DWIDTH 6 0
BBX 5 15 1 0
BITMAP
D8
D8
00
F0
F0
F0
F0
F0
F0
F0
F0
F0
F0
F0
F0
ENDCHAR
STARTCHAR Eth
ENCODING 208
SWIDTH 773 0
DWIDTH 14 0
BBX 13 12 0 0
BITMAP
7FC0
7FF0
7FF0
78F8
7878
FE78
FE78
7878
78F0
7FF0
7FE0
7FC0
ENDCHAR
STARTCHAR Ntilde
ENCODING 209
SWIDTH 820 0
DWIDTH 15 0
BBX 13 16 1 0
BITMAP
0E80
0F80
0B00
0000
F038
F838
FC38
FC38
FE38
EF38
E7B8
E3F8
E1F8
E1F8
E0F8
E078
ENDCHAR
STARTCHAR Ograve
ENCODING 210
SWIDTH 866 0
DWIDTH 16 0
BBX 14 15 1 0
BITMAP
0780
0380
0000
0FC0
3FF0
7C78
787C
F03C
F03C
F03C
F03C
F878
78F8
3FF0
0FC0
ENDCHAR
STARTCHAR Oacute
ENCODING 211
SWIDTH 866 0
DWIDTH 16 0
BBX 14 15 1 0
BITMAP
0780
0780
0000
0FC0
3FF0
7C78
787C
F03C
F03C
F03C
F03C
F878
78F8
3FF0
0FC0
ENDCHAR
STARTCHAR Ocircumflex
ENCODING 212
SWIDTH 866 0
DWIDTH 16 0
BBX 14 15 1 0
BITMAP
0780
0780
0000
0FC0
3FF0
7C78
787C
F03C
F03C
F03C
F03C
F878
78F8
3FF0
0FC0
ENDCHAR
STARTCHAR Otilde
ENCODING 213
SWIDTH 866 0
DWIDTH 16 0
BBX 14 16 1 0
BITMAP
0680
0780
0980
0000
0FC0
3FF0
7C78
787C
F03C
F03C
F03C
F03C
F878
78F8
3FF0
0FC0
ENDCHAR
STARTCHAR Odieresis
ENCODING 214
SWIDTH 866 0
DWIDTH 16 0
BBX 14 15 1 0
BITMAP
06C0
06C0
0000
0FC0
3FF0
7C78
787C
F03C
F03C
F03C
F03C
F878
78F8
3FF0
0FC0
ENDCHAR
STARTCHAR multiply
ENCODING 215
SWIDTH 651 0
DWIDTH 12 0
BBX 8 7 2 3
BITMAP
63
F7
3E
1C
3E
77
63
ENDCHAR
STARTCHAR Oslash
ENCODING 216
SWIDTH 854 0
DWIDTH 15 0
BBX 13 14 1 -1
BITMAP
0070
0FE0
3FE0
79F0
79F8
F378
F378
F678
F678
FCF0
7CF0
3FE0
3F80
7000
ENDCHAR
STARTCHAR Ugrave
ENCODING 217
SWIDTH 777 0
DWIDTH 14 0
BBX 12 15 1 0
BITMAP
0F00
0700
0000
F0F0
F0F0
F0F0
F0F0
F0F0
F0F0
F0F0
F0F0
F0F0
F9F0
7FE0
1F80
ENDCHAR
STARTCHAR Uacute
ENCODING 218
SWIDTH 777 0
DWIDTH 14 0
BBX 12 15 1 0
BITMAP
0700
0700
0000
F0F0
F0F0
F0F0
F0F0
F0F0
F0F0
F0F0
F0F0
F0F0
F9F0
7FE0
1F80
ENDCHAR
STARTCHAR Ucircumflex
ENCODING 219
SWIDTH 777 0
DWIDTH 14 0
BBX 12 15 1 0
BITMAP
0F00
0F00
0000
F0F0
F0F0
F0F0
F0F0
F0F0
F0F0
F0F0
F0F0
F0F0
F9F0
7FE0
1F80
ENDCHAR
STARTCHAR Udieresis
ENCODING 220
SWIDTH 777 0
DWIDTH 14 0
BBX 12 15 1 0
BITMAP
0D80
0D80
0000
F0F0
F0F0
F0F0
F0F0
F0F0
F0F0
F0F0
F0F0
F0F0
F9F0
7FE0
1F80
ENDCHAR
STARTCHAR Yacute
ENCODING 221
SWIDTH 645 0
DWIDTH 12 0
BBX 13 15 0 0
BITMAP
0F00
0F00
0000
F078
70F0
79E0
39C0
1FC0
1F80
0F00
0F00
0F00
0F00
0F00
0F00
ENDCHAR
STARTCHAR Thorn
ENCODING 222
SWIDTH 638 0
DWIDTH 11 0
BBX 10 12 1 0
BITMAP
F000
F000
FF80
FFC0
F1C0
F1C0
F1C0
FF80
F700
F000
F000
F000
ENDCHAR
STARTCHAR germandbls
ENCODING 223
SWIDTH 654 0
DWIDTH 12 0
BBX 11 12 1 0
BITMAP
3F80
7FC0
F1C0
E1C0
E780
E700
E780
E1E0
E0E0
E0E0
E7E0
E780
ENDCHAR
STARTCHAR agrave
ENCODING 224
SWIDTH 605 0
DWIDTH 11 0
BBX 9 12 1 0
BITMAP
1E00
0E00
0000
7F00
7F80
0380
0F80
7F80
F380
E380
FB80
7380
ENDCHAR
STARTCHAR aacute
ENCODING 225
SWIDTH 605 0
DWIDTH 11 0
BBX 9 12 1 0
BITMAP
1E00
1C00
0000
7F00
7F80
0380
0F80
7F80
F380
E380
FB80
7380
ENDCHAR
STARTCHAR acircumflex
ENCODING 226
SWIDTH 605 0
DWIDTH 11 0
BBX 9 12 1 0
BITMAP
1C00
3600
0000
7F00
7F80
0380
0F80
7F80
F380
E380
FB80
7380
ENDCHAR
STARTCHAR atilde
ENCODING 227
SWIDTH 605 0
DWIDTH 11 0
BBX 9 13 1 0
BITMAP
1A00
3E00
2600
0000
7F00
7F80
0380
0F80
7F80
F380
E380
FB80
7380
ENDCHAR
STARTCHAR adieresis
ENCODING 228
SWIDTH 605 0
DWIDTH 11 0
BBX 9 12 1 0
BITMAP
3600
3600
0000
7F00
7F80
0380
0F80
7F80
F380
E380
FB80
7380
ENDCHAR
STARTCHAR aring
ENCODING 229
SWIDTH 605 0
DWIDTH 11 0
BBX 9 14 1 0
BITMAP
0C00
1200
1200
0C00
0000
7F00
7F80
0380
0F80
7F80
F380
E380
FB80
7380
ENDCHAR
STARTCHAR ae
ENCODING 230
SWIDTH 888 0
DWIDTH 16 0
BBX 16 9 0 0
BITMAP
3F7C
3FFE
03C7
0F87
7FFF
F380
E3C0
FDFE
787E
ENDCHAR
STARTCHAR ccedilla
ENCODING 231
SWIDTH 505 0
DWIDTH 9 0
BBX 7 12 1 -3
BITMAP
3E
7E
F0
E0
E0
E0
F0
7E
3E
00
1C
38
ENDCHAR
STARTCHAR egrave
ENCODING 232
SWIDTH 591 0
DWIDTH 11 0
BBX 9 12 1 0
BITMAP
3C00
1E00
0000
3E00
7F00
F380
E380
FF80
E000
E000
7F00
3F00
ENDCHAR
STARTCHAR eacute
ENCODING 233
SWIDTH 591 0
DWIDTH 11 0
BBX 9 12 1 0
BITMAP
1E00
1C00
0000
3E00
7F00
F380
E380
FF80
E000
E000
7F00
3F00
ENDCHAR
STARTCHAR ecircumflex
ENCODING 234
SWIDTH 591 0
DWIDTH 11 0
BBX 9 12 1 0
BITMAP
1C00
3600
0000
3E00
7F00
F380
E380
FF80
E000
E000
7F00
3F00
ENDCHAR
STARTCHAR edieresis
ENCODING 235
SWIDTH 591 0
DWIDTH 11 0
BBX 9 12 1 0
BITMAP
3600
3600
0000
3E00
7F00
F380
E380
FF80
E000
E000
7F00
3F00
ENDCHAR
STARTCHAR igrave
ENCODING 236
SWIDTH 312 0
DWIDTH 6 0
BBX 4 12 1 0
BITMAP
F0
70
00
E0
E0
E0
E0
E0
E0
E0
E0
E0
ENDCHAR
STARTCHAR iacute
ENCODING 237
SWIDTH 312 0
DWIDTH 6 0
BBX 4 12 1 0
BITMAP
F0
F0
00
E0
E0
E0
E0
E0
E0
E0
E0
E0
ENDCHAR
STARTCHAR icircumflex
ENCODING 238
SWIDTH 312 0
DWIDTH 6 0
BBX 4 12 1 0
BITMAP
F0
F0
00
E0
E0
E0
E0
E0
E0
E0
E0
E0
ENDCHAR
STARTCHAR idieresis
ENCODING 239
SWIDTH 312 0
DWIDTH 6 0
BBX 5 12 1 0
BITMAP
D8
D8
00
E0
E0
E0
E0
E0
E0
E0
E0
E0
ENDCHAR
STARTCHAR eth
ENCODING 240
SWIDTH 648 0
DWIDTH 12 0
BBX 11 14 1 0
BITMAP
0700
0F80
0F00
0700
0380
1F80
7FC0
71E0
E0E0
E0E0
F1E0
FFC0
7FC0
1F00
ENDCHAR
STARTCHAR ntilde
ENCODING 241
SWIDTH 679 0
DWIDTH 12 0
BBX 10 13 1 0
BITMAP
1900
1E00
1600
0000
EF80
FFC0
F1C0
E1C0
E1C0
E1C0
E1C0
E1C0
E1C0
ENDCHAR
STARTCHAR ograve
ENCODING 242
SWIDTH 648 0
DWIDTH 12 0
BBX 10 12 1 0
BITMAP
1E00
0E00
0000
1F00
7F80
F3C0
E1C0
E1C0
E1C0
F3C0
7F80
3E00
ENDCHAR
STARTCHAR oacute
ENCODING 243
SWIDTH 648 0
DWIDTH 12 0
BBX 10 12 1 0
BITMAP
1E00
1E00
0000
1F00
7F80
F3C0
E1C0
E1C0
E1C0
F3C0
7F80
3E00
ENDCHAR
STARTCHAR ocircumflex
ENCODING 244
SWIDTH 648 0
DWIDTH 12 0
BBX 10 12 1 0
BITMAP
1E00
1E00
0000
1F00
7F80
F3C0
E1C0
E1C0
E1C0
F3C0
7F80
3E00
ENDCHAR
STARTCHAR otilde
ENCODING 245
SWIDTH 648 0
DWIDTH 12 0
BBX 10 13 1 0
BITMAP
1A00
3E00
2600
0000
1F00
7F80
F3C0
E1C0
E1C0
E1C0
F3C0
7F80
3E00
ENDCHAR
STARTCHAR odieresis
ENCODING 246
SWIDTH 648 0
DWIDTH 12 0
BBX 10 12 1 0
BITMAP
3600
3600
0000
1F00
7F80
F3C0
E1C0
E1C0
E1C0
F3C0
7F80
3E00
ENDCHAR
STARTCHAR divide
ENCODING 247
SWIDTH 651 0
DWIDTH 12 0
BBX 11 8 0 2
BITMAP
0E00
0E00
0000
FFE0
FFE0
0000
0E00
0E00
ENDCHAR
STARTCHAR oslash
ENCODING 248
SWIDTH 645 0
DWIDTH 12 0
BBX 10 11 1 -1
BITMAP
0380
1F00
7F80
F3C0
E1C0
E1C0
E1C0
F380
7F80
3E00
6000
ENDCHAR
STARTCHAR ugrave
ENCODING 249
SWIDTH 657 0
DWIDTH 12 0
BBX 10 12 1 0
BITMAP
1E00
0E00
0000
E1C0
E1C0
E1C0
E1C0
E1C0
E1C0
F3C0
FFC0
7DC0
ENDCHAR
STARTCHAR uacute
ENCODING 250
SWIDTH 657 0
DWIDTH 12 0
BBX 10 12 1 0
BITMAP
1E00
1E00
0000
E1C0
E1C0
E1C0
E1C0
E1C0
E1C0
F3C0
FFC0
7DC0
ENDCHAR
STARTCHAR ucircumflex
ENCODING 251
SWIDTH 657 0
DWIDTH 12 0
BBX 10 12 1 0
BITMAP
1E00
1E00
0000
E1C0
E1C0
E1C0
E1C0
E1C0
E1C0
F3C0
FFC0
7DC0
ENDCHAR
STARTCHAR udieresis
ENCODING 252
SWIDTH 657 0
DWIDTH 12 0
BBX 10 12 1 0
BITMAP
1A00
3600
0000
E1C0
E1C0
E1C0
E1C0
E1C0
E1C0
F3C0
FFC0
7DC0
ENDCHAR
STARTCHAR yacute
ENCODING 253
SWIDTH 591 0
DWIDTH 11 0
BBX 12 16 -1 -4
BITMAP
0780
0700
0000
78F0
38E0
3CE0
3DC0
1DC0
1DC0
1F80
0F80
0F00
0F00
1E00
FE00
F800
ENDCHAR
STARTCHAR thorn
ENCODING 254
SWIDTH 658 0
DWIDTH 12 0
BBX 10 16 1 -4
BITMAP
E000
E000
E000
EF00
FF80
FFC0
E1C0
E1C0
F1C0
FFC0
FF80
EF00
E000
E000
E000
E000
ENDCHAR
STARTCHAR ydieresis
ENCODING 255
SWIDTH 591 0
DWIDTH 11 0
BBX 12 16 -1 -4
BITMAP
0D80
0D80
0000
78F0
38E0
3CE0
3DC0
1DC0
1DC0
1F80
0F80
0F00
0F00
1E00
FE00
F800
ENDCHAR
STARTCHAR dotlessi
ENCODING 305
SWIDTH 312 0
DWIDTH 6 0
BBX 3 9 1 0
BITMAP
E0
E0
E0
E0
E0
E0
E0
E0
E0
ENDCHAR
STARTCHAR Lslash
ENCODING 321
SWIDTH 585 0
DWIDTH 11 0
BBX 11 12 0 0
BITMAP
7800
7800
7900
7B00
7F00
7C00
7800
F800
F800
7800
7FE0
7FE0
ENDCHAR
STARTCHAR lslash
ENCODING 322
SWIDTH 322 0
DWIDTH 6 0
BBX 5 12 0 0
BITMAP
70
70
70
78
78
78
F0
F0
F0
70
70
70
ENDCHAR
STARTCHAR OE
ENCODING 338
SWIDTH 1068 0
DWIDTH 19 0
BBX 17 12 1 0
BITMAP
0FFF80
3FFF80
7FFF80
78E000
F0FF00
F0FF00
F0FF00
F0E000
F8E000
7FFF80
3FFF80
1FFF80
ENDCHAR
STARTCHAR oe
ENCODING 339
SWIDTH 974 0
DWIDTH 18 0
BBX 16 9 1 0
BITMAP
1E3C
7FFE
73E7
E1C7
E1FF
E1C0
F3E0
7FFE
3E7E
ENDCHAR
STARTCHAR Scaron
ENCODING 352
SWIDTH 552 0
DWIDTH 10 0
BBX 8 15 1 0
BITMAP
3C
3C
00
1F
3F
78
78
78
3C
1E
0F
0F
0F
FE
FC
ENDCHAR
STARTCHAR scaron
ENCODING 353
SWIDTH 482 0
DWIDTH 9 0
BBX 8 12 0 0
BITMAP
36
1C
00
3F
7F
70
78
1E
0F
07
FF
FC
ENDCHAR
STARTCHAR Ydieresis
ENCODING 376
SWIDTH 645 0
DWIDTH 12 0
BBX 13 15 0 0
BITMAP
0D80
1B00
0000
F078
70F0
79E0
39C0
1FC0
1F80
0F00
0F00
0F00
0F00
0F00
0F00
ENDCHAR
STARTCHAR Zcaron
ENCODING 381
SWIDTH 666 0
DWIDTH 12 0
BBX 11 15 0 0
BITMAP
0F00
0F00
0000
7FE0
7FE0
7FE0
03C0
0780
0F00
1E00
3C00
7800
FFC0
FFC0
FFC0
ENDCHAR
STARTCHAR zcaron
ENCODING 382
SWIDTH 523 0
DWIDTH 9 0
BBX 8 12 0 0
BITMAP
36
1C
00
FF
FF
0F
1E
3C
78
F0
FF
FF
ENDCHAR
STARTCHAR florin
ENCODING 402
SWIDTH 651 0
DWIDTH 12 0
BBX 11 15 0 -2
BITMAP
01E0
03E0
0700
0700
1FC0
1FC0
0E00
0E00
0E00
0E00
0E00
1C00
1C00
FC00
F800
ENDCHAR
STARTCHAR circumflex
ENCODING 710
SWIDTH 500 0
DWIDTH 9 0
BBX 5 2 2 10
BITMAP
70
D8
ENDCHAR
STARTCHAR caron
ENCODING 711
SWIDTH 500 0
DWIDTH 9 0
BBX 5 2 2 10
BITMAP
D8
70
ENDCHAR
STARTCHAR macron
ENCODING 713
SWIDTH 500 0
DWIDTH 9 0
BBX 6 1 2 10
BITMAP
FC
ENDCHAR
STARTCHAR breve
ENCODING 728
SWIDTH 500 0
DWIDTH 9 0
BBX 5 2 2 10
BITMAP
88
70
ENDCHAR
STARTCHAR dotaccent
ENCODING 729
SWIDTH 500 0
DWIDTH 9 0
BBX 2 3 4 10
BITMAP
C0
C0
C0
ENDCHAR
STARTCHAR ring
ENCODING 730
SWIDTH 500 0
DWIDTH 9 0
BBX 4 4 3 10
BITMAP
60
90
90
60
ENDCHAR
STARTCHAR ogonek
ENCODING 731
SWIDTH 500 0
DWIDTH 9 0
BBX 3 3 5 -3
BITMAP
40
C0
E0
ENDCHAR
STARTCHAR tilde
ENCODING 732
SWIDTH 500 0
DWIDTH 9 0
BBX 5 3 2 10
BITMAP
E8
F8
B0
ENDCHAR
STARTCHAR hungarumlaut
ENCODING 733
SWIDTH 500 0
DWIDTH 9 0
BBX 7 2 1 10
BITMAP
66
CC
ENDCHAR
STARTCHAR pi
ENCODING 960
SWIDTH 644 0
DWIDTH 12 0
BBX 10 9 1 0
BITMAP
FFC0
FFC0
7380
7380
7380
7380
7380
7380
7380
ENDCHAR
STARTCHAR endash
ENCODING 8211
SWIDTH 651 0
DWIDTH 12 0
BBX 10 2 1 4
BITMAP
FFC0
FFC0
ENDCHAR
STARTCHAR emdash
ENCODING 8212
SWIDTH 823 0
DWIDTH 15 0
BBX 15 2 0 4
BITMAP
FFFE
FFFE
ENDCHAR
STARTCHAR quoteleft
ENCODING 8216
SWIDTH 230 0
DWIDTH 4 0
BBX 4 3 0 9
BITMAP
30
60
E0
ENDCHAR
STARTCHAR quoteright
ENCODING 8217
SWIDTH 246 0
DWIDTH 4 0
BBX 4 3 1 9
BITMAP
70
E0
C0
ENDCHAR
STARTCHAR quotesinglbase
ENCODING 8218
SWIDTH 246 0
DWIDTH 4 0
BBX 4 3 0 -1
BITMAP
70
E0
C0
ENDCHAR
STARTCHAR quotedblleft
ENCODING 8220
SWIDTH 436 0
DWIDTH 8 0
BBX 8 3 1 9
BITMAP
33
66
EE
ENDCHAR
STARTCHAR quotedblright
ENCODING 8221
SWIDTH 451 0
DWIDTH 8 0
BBX 8 3 0 9
BITMAP
77
EE
CC
ENDCHAR
STARTCHAR quotedblbase
ENCODING 8222
SWIDTH 425 0
DWIDTH 8 0
BBX 8 3 0 -1
BITMAP
77
EE
CC
ENDCHAR
STARTCHAR dagger
ENCODING 8224
SWIDTH 601 0
DWIDTH 11 0
BBX 9 16 1 -4
BITMAP
1C00
1C00
1C00
1C00
FF80
FF80
1C00
1C00
1C00
1C00
1C00
1C00
1C00
1C00
1C00
1C00
ENDCHAR
STARTCHAR daggerdbl
ENCODING 8225
SWIDTH 601 0
DWIDTH 11 0
BBX 9 16 1 -4
BITMAP
1C00
1C00
1C00
1C00
FF80
FF80
1C00
1C00
1C00
1C00
FF80
FF80
1C00
1C00
1C00
1C00
ENDCHAR
STARTCHAR bullet
ENCODING 8226
SWIDTH 664 0
DWIDTH 12 0
BBX 5 5 4 4
BITMAP
70
F8
F8
F8
70
ENDCHAR
STARTCHAR ellipsis
ENCODING 8230
SWIDTH 889 0
DWIDTH 16 0
BBX 13 3 1 0
BITMAP
E738
E738
E738
ENDCHAR
STARTCHAR perthousand
ENCODING 8240
SWIDTH 1309 0
DWIDTH 24 0
BBX 23 12 0 0
BITMAP
383000
7C6000
CC6000
CCC000
CCCE1C
CD9F3E
FBB366
733366
073366
063366
0C3E7C
0C1C38
ENDCHAR
STARTCHAR quilsinglleft
ENCODING 8249
SWIDTH 311 0
DWIDTH 6 0
BBX 4 6 1 1
BITMAP
70
60
E0
E0
70
70
ENDCHAR
STARTCHAR quilsinglright
ENCODING 8250
SWIDTH 313 0
DWIDTH 6 0
BBX 4 6 1 1
BITMAP
E0
60
70
60
E0
C0
ENDCHAR
STARTCHAR Euro
ENCODING 8364
SWIDTH 681 0
DWIDTH 12 0
BBX 11 12 0 0
BITMAP
07E0
0FE0
1FE0
3E00
3C00
FFE0
7800
FFC0
7C00
3FE0
1FE0
0FE0
ENDCHAR
STARTCHAR trademark
ENCODING 8482
SWIDTH 943 0
DWIDTH 17 0
BBX 16 7 0 5
BITMAP
FFC7
FFEF
19EF
11EF
11FB
31BB
31B3
ENDCHAR
STARTCHAR Omega
ENCODING 8486
SWIDTH 664 0
DWIDTH 12 0
BBX 11 12 0 0
BITMAP
1F00
3F80
71C0
E0E0
E0E0
E0E0
E0E0
E0E0
71C0
3180
FBE0
FBE0
ENDCHAR
STARTCHAR partialdiff
ENCODING 8706
SWIDTH 497 0
DWIDTH 9 0
BBX 9 12 0 0
BITMAP
7000
7C00
1E00
0700
3F80
7F80
F380
E380
E380
F780
7F00
3E00
ENDCHAR
STARTCHAR increment
ENCODING 8710
SWIDTH 669 0
DWIDTH 12 0
BBX 12 12 0 0
BITMAP
0700
0F80
0F80
0D80
1DC0
1DC0
39C0
39E0
78E0
70E0
7FF0
FFF0
ENDCHAR
STARTCHAR product
ENCODING 8719
SWIDTH 666 0
DWIDTH 12 0
BBX 10 19 1 -5
BITMAP
FFC0
FFC0
6180
6180
6180
6180
6180
6180
6180
6180
6180
6180
6180
6180
6180
6180
6180
F3C0
F3C0
ENDCHAR
STARTCHAR summation
ENCODING 8721
SWIDTH 664 0
DWIDTH 12 0
BBX 11 19 1 -5
BITMAP
FFE0
FFE0
F0E0
70E0
78E0
3C00
1C00
1E00
0F00
0F00
0E00
1E00
3C00
3C00
78E0
70E0
F0E0
FFE0
FFE0
ENDCHAR
STARTCHAR minus
ENCODING 8722
SWIDTH 651 0
DWIDTH 12 0
BBX 10 2 1 5
BITMAP
FFC0
FFC0
ENDCHAR
STARTCHAR fraction
ENCODING 8725
SWIDTH 109 0
DWIDTH 2 0
BBX 8 12 -3 0
BITMAP
03
06
06
0C
0C
18
18
30
30
60
60
C0
ENDCHAR
STARTCHAR periodcentered
ENCODING 8729
SWIDTH 207 0
DWIDTH 4 0
BBX 4 3 0 5
BITMAP
F0
F0
F0
ENDCHAR
STARTCHAR radical
ENCODING 8730
SWIDTH 664 0
DWIDTH 12 0
BBX 12 15 0 0
BITMAP
01F0
01F0
03F0
0380
0380
0380
0380
0700
F700
F700
F700
3700
3E00
3E00
1E00
ENDCHAR
STARTCHAR infinity
ENCODING 8734
SWIDTH 664 0
DWIDTH 12 0
BBX 11 6 0 3
BITMAP
71C0
FBE0
CE60
CE60
FFE0
71C0
ENDCHAR
STARTCHAR integral
ENCODING 8747
SWIDTH 498 0
DWIDTH 9 0
BBX 7 18 1 -4
BITMAP
0E
1E
38
38
38
38
38
38
38
38
38
38
38
38
38
38
F0
E0
ENDCHAR
STARTCHAR approxequal
ENCODING 8776
SWIDTH 497 0
DWIDTH 9 0
BBX 9 7 0 3
BITMAP
7100
FF80
4F00
0000
7100
FF80
4F00
ENDCHAR
STARTCHAR notequal
ENCODING 8800
SWIDTH 651 0
DWIDTH 12 0
BBX 10 11 1 1
BITMAP
0200
0300
0600
FFC0
FFC0
0C00
FFC0
FFC0
1800
3000
1000
ENDCHAR
STARTCHAR lessequal
ENCODING 8804
SWIDTH 497 0
DWIDTH 9 0
BBX 8 12 1 0
BITMAP
01
0F
3F
FE
E0
FE
3F
0F
01
00
FF
FF
ENDCHAR
STARTCHAR greaterequal
ENCODING 8805
SWIDTH 497 0
DWIDTH 9 0
BBX 8 12 1 0
BITMAP
80
F0
FC
7F
07
7F
FC
F0
80
00
FF
FF
ENDCHAR
STARTCHAR lozenge
ENCODING 9674
SWIDTH 664 0
DWIDTH 12 0
BBX 9 13 1 0
BITMAP
0800
1400
1400
2200
4100
4100
8080
4100
4100
2200
1400
1400
0800
ENDCHAR
STARTCHAR fi
ENCODING 61441
SWIDTH 684 0
DWIDTH 12 0
BBX 10 12 0 0
BITMAP
3FC0
7FC0
7000
FFC0
FFC0
71C0
71C0
71C0
71C0
71C0
71C0
71C0
ENDCHAR
STARTCHAR fl
ENCODING 61442
SWIDTH 679 0
DWIDTH 12 0
BBX 10 12 0 0
BITMAP
3FC0
7FC0
71C0
FFC0
FFC0
71C0
71C0
71C0
71C0
71C0
71C0
71C0
ENDCHAR
STARTCHAR .notdef
ENCODING -1
SWIDTH 1000 0
DWIDTH 18 0
BBX 14 14 2 0
BITMAP
FFFC
8004
8004
8004
8004
8004
8004
8004
8004
8004
8004
8004
8004
FFFC
ENDCHAR
STARTCHAR glyph1
ENCODING -1
SWIDTH 0 0
DWIDTH 0 0
BBX 1 1 0 0
BITMAP
00
ENDCHAR
STARTCHAR glyph2
ENCODING -1
SWIDTH 250 0
DWIDTH 5 0
BBX 1 1 0 0
BITMAP
00
ENDCHAR
ENDFONT
