STARTFONT 2.1
FONT -FontForge-Minercraftory-Book-R-Normal--18-170-75-75-P-134-ISO10646-1
SIZE 17 75 75
FONTBOUNDINGBOX 21 28 -1 -5
COMMENT "Generated by fontforge, http://fontforge.sourceforge.net"
COMMENT "(c) 2009, 2010, 2011, 2012, 2013 GrandChaos9000. Some Rights Reserved."
STARTPROPERTIES 39
FOUNDRY "FontForge"
FAMILY_NAME "Minercraftory"
WEIGHT_NAME "Book"
SLANT "R"
SETWIDTH_NAME "Normal"
ADD_STYLE_NAME ""
PIXEL_SIZE 18
POINT_SIZE 170
RESOLUTION_X 75
RESOLUTION_Y 75
SPACING "P"
AVERAGE_WIDTH 134
CHARSET_REGISTRY "ISO10646"
CHARSET_ENCODING "1"
FONTNAME_REGISTRY ""
CHARSET_COLLECTIONS "ISO10646-1"
FONT_NAME "MinercraftoryRegular"
FACE_NAME "Minercraftory Regular"
COPYRIGHT "(c) 2009, 2010, 2011, 2012, 2013 GrandChaos9000. Some Rights Reserved."
FONT_VERSION "v1.35 - 2/6/2013"
FONT_ASCENT 14
FONT_DESCENT 4
UNDERLINE_POSITION -3
UNDERLINE_THICKNESS 2
X_HEIGHT 13
CAP_HEIGHT 17
RAW_ASCENT 799
RAW_DESCENT 200
NORM_SPACE 7
RELATIVE_WEIGHT 40
RELATIVE_SETWIDTH 50
SUPERSCRIPT_X 0
SUPERSCRIPT_Y 8
SUPERSCRIPT_SIZE 11
SUBSCRIPT_X 0
SUBSCRIPT_Y 2
SUBSCRIPT_SIZE 11
AVG_LOWERCASE_WIDTH 138
AVG_UPPERCASE_WIDTH 141
ENDPROPERTIES
CHARS 171
STARTCHAR space
ENCODING 32
SWIDTH 390 0
DWIDTH 7 0
BBX 1 1 0 0
BITMAP
00
ENDCHAR
STARTCHAR exclam
ENCODING 33
SWIDTH 390 0
DWIDTH 7 0
BBX 5 18 1 0
BITMAP
F8
F8
F8
F8
F8
F8
F8
F8
F8
F8
F8
F8
F8
00
F8
F8
F8
F8
ENDCHAR
STARTCHAR quotedbl
ENCODING 34
SWIDTH 781 0
DWIDTH 14 0
BBX 12 7 1 11
BITMAP
F9F0
F9F0
F9F0
F9F0
3870
3870
E1C0
ENDCHAR
STARTCHAR numbersign
ENCODING 35
SWIDTH 976 0
DWIDTH 18 0
BBX 16 18 1 0
BITMAP
3E7C
3E7C
3E7C
3E7C
FFFF
FFFF
FFFF
3E7C
3E7C
3E7C
3E7C
FFFF
FFFF
FFFF
3E7C
3E7C
3E7C
3E7C
ENDCHAR
STARTCHAR ampersand
ENCODING 38
SWIDTH 781 0
DWIDTH 14 0
BBX 12 18 1 0
BITMAP
3FF0
3FF0
FFF0
FFF0
F800
F800
F800
3FF0
3FF0
FFF0
FFF0
F9F0
F9F0
F9F0
FFF0
FFF0
3FC0
3FC0
ENDCHAR
STARTCHAR quotesingle
ENCODING 39
SWIDTH 390 0
DWIDTH 7 0
BBX 5 7 1 11
BITMAP
F8
F8
F8
F8
38
38
E0
ENDCHAR
STARTCHAR parenleft
ENCODING 40
SWIDTH 488 0
DWIDTH 9 0
BBX 7 18 1 0
BITMAP
3E
3E
FE
FE
F8
F8
F8
F8
F8
F8
F8
F8
F8
F8
FE
FE
3E
3E
ENDCHAR
STARTCHAR parenright
ENCODING 41
SWIDTH 488 0
DWIDTH 9 0
BBX 7 18 1 0
BITMAP
F8
F8
FE
FE
3E
3E
3E
3E
3E
3E
3E
3E
3E
3E
FE
FE
F8
F8
ENDCHAR
STARTCHAR comma
ENCODING 44
SWIDTH 390 0
DWIDTH 7 0
BBX 5 8 1 -4
BITMAP
F8
F8
F8
F8
38
38
E0
E0
ENDCHAR
STARTCHAR hyphen
ENCODING 45
SWIDTH 488 0
DWIDTH 9 0
BBX 7 3 1 7
BITMAP
FE
FE
FE
ENDCHAR
STARTCHAR period
ENCODING 46
SWIDTH 390 0
DWIDTH 7 0
BBX 5 4 1 0
BITMAP
F8
F8
F8
F8
ENDCHAR
STARTCHAR zero
ENCODING 48
SWIDTH 781 0
DWIDTH 14 0
BBX 12 18 1 0
BITMAP
FFF0
FFF0
FFF0
FFF0
F9F0
F9F0
F9F0
F9F0
F9F0
F9F0
F9F0
F9F0
F9F0
F9F0
FFF0
FFF0
FFF0
FFF0
ENDCHAR
STARTCHAR one
ENCODING 49
SWIDTH 488 0
DWIDTH 9 0
BBX 7 18 1 0
BITMAP
FE
FE
FE
FE
3E
3E
3E
3E
3E
3E
3E
3E
3E
3E
3E
3E
3E
3E
ENDCHAR
STARTCHAR two
ENCODING 50
SWIDTH 781 0
DWIDTH 14 0
BBX 12 18 1 0
BITMAP
FFC0
FFC0
FFF0
FFF0
01F0
01F0
01F0
3FF0
3FF0
FFC0
FFC0
F800
F800
F800
FFF0
FFF0
FFF0
FFF0
ENDCHAR
STARTCHAR three
ENCODING 51
SWIDTH 781 0
DWIDTH 14 0
BBX 12 18 1 0
BITMAP
FFC0
FFC0
FFF0
FFF0
01F0
01F0
01F0
FFC0
FFC0
FFF0
FFF0
01F0
01F0
01F0
FFF0
FFF0
FFC0
FFC0
ENDCHAR
STARTCHAR four
ENCODING 52
SWIDTH 781 0
DWIDTH 14 0
BBX 12 18 1 0
BITMAP
F9F0
F9F0
F9F0
F9F0
F9F0
F9F0
F9F0
FFF0
FFF0
FFF0
FFF0
01F0
01F0
01F0
01F0
01F0
01F0
01F0
ENDCHAR
STARTCHAR five
ENCODING 53
SWIDTH 781 0
DWIDTH 14 0
BBX 12 18 1 0
BITMAP
FFF0
FFF0
FFF0
FFF0
F800
F800
F800
FFC0
FFC0
FFF0
FFF0
01F0
01F0
01F0
FFF0
FFF0
FFC0
FFC0
ENDCHAR
STARTCHAR six
ENCODING 54
SWIDTH 781 0
DWIDTH 14 0
BBX 12 18 1 0
BITMAP
FFF0
FFF0
FFF0
FFF0
F800
F800
F800
FFF0
FFF0
FFF0
FFF0
F9F0
F9F0
F9F0
FFF0
FFF0
FFF0
FFF0
ENDCHAR
STARTCHAR seven
ENCODING 55
SWIDTH 781 0
DWIDTH 14 0
BBX 12 18 1 0
BITMAP
FFF0
FFF0
FFF0
FFF0
01F0
01F0
01F0
07C0
07C0
1F80
1F80
1F80
1F80
1F80
1F80
1F80
1F80
1F80
ENDCHAR
STARTCHAR eight
ENCODING 56
SWIDTH 781 0
DWIDTH 14 0
BBX 12 18 1 0
BITMAP
FFF0
FFF0
FFF0
FFF0
F9F0
F9F0
F9F0
3FC0
3FC0
FFF0
FFF0
F9F0
F9F0
F9F0
FFF0
FFF0
FFF0
FFF0
ENDCHAR
STARTCHAR nine
ENCODING 57
SWIDTH 781 0
DWIDTH 14 0
BBX 12 18 1 0
BITMAP
FFF0
FFF0
FFF0
FFF0
F9F0
F9F0
F9F0
FFF0
FFF0
FFF0
FFF0
01F0
01F0
01F0
FFF0
FFF0
FFF0
FFF0
ENDCHAR
STARTCHAR equal
ENCODING 61
SWIDTH 781 0
DWIDTH 14 0
BBX 12 18 1 0
BITMAP
FFF0
FFF0
FFF0
FFF0
E670
E670
F9F0
F0F0
F6F0
FFF0
FFF0
FFF0
FFF0
F9F0
F9F0
F9F0
F9F0
F9F0
ENDCHAR
STARTCHAR question
ENCODING 63
SWIDTH 781 0
DWIDTH 14 0
BBX 12 18 1 0
BITMAP
FFC0
FFC0
FFF0
FFF0
01F0
01F0
01F0
07F0
07F0
1FC0
1FC0
1F80
1F80
0000
1F80
1F80
1F80
1F80
ENDCHAR
STARTCHAR A
ENCODING 65
SWIDTH 781 0
DWIDTH 14 0
BBX 12 18 1 0
BITMAP
FFF0
FFF0
FFF0
FFF0
F9F0
F9F0
F9F0
FFF0
FFF0
FFF0
FFF0
F9F0
F9F0
F9F0
F9F0
F9F0
F9F0
F9F0
ENDCHAR
STARTCHAR B
ENCODING 66
SWIDTH 781 0
DWIDTH 14 0
BBX 12 18 1 0
BITMAP
FFF0
FFF0
FFF0
FFF0
F9F0
F9F0
F9F0
FFC0
FFC0
FFF0
FFF0
F9F0
F9F0
F9F0
FFF0
FFF0
FFF0
FFF0
ENDCHAR
STARTCHAR C
ENCODING 67
SWIDTH 781 0
DWIDTH 14 0
BBX 12 18 1 0
BITMAP
FFF0
FFF0
FFF0
FFF0
F800
F800
F800
F800
F800
F800
F800
F800
F800
F800
FFF0
FFF0
FFF0
FFF0
ENDCHAR
STARTCHAR D
ENCODING 68
SWIDTH 781 0
DWIDTH 14 0
BBX 12 18 1 0
BITMAP
FFC0
FFC0
FFF0
FFF0
F9F0
F9F0
F9F0
F9F0
F9F0
F9F0
F9F0
F9F0
F9F0
F9F0
FFF0
FFF0
FFC0
FFC0
ENDCHAR
STARTCHAR E
ENCODING 69
SWIDTH 781 0
DWIDTH 14 0
BBX 12 18 1 0
BITMAP
FFF0
FFF0
FFF0
FFF0
F800
F800
F800
FFF0
FFF0
FFF0
FFF0
F800
F800
F800
FFF0
FFF0
FFF0
FFF0
ENDCHAR
STARTCHAR F
ENCODING 70
SWIDTH 781 0
DWIDTH 14 0
BBX 12 18 1 0
BITMAP
FFF0
FFF0
FFF0
FFF0
F800
F800
F800
FFF0
FFF0
FFF0
FFF0
F800
F800
F800
F800
F800
F800
F800
ENDCHAR
STARTCHAR G
ENCODING 71
SWIDTH 781 0
DWIDTH 14 0
BBX 12 18 1 0
BITMAP
FFF0
FFF0
FFF0
FFF0
F800
F800
F800
F9F0
F9F0
F9F0
F9F0
F9F0
F9F0
F9F0
FFF0
FFF0
FFF0
FFF0
ENDCHAR
STARTCHAR H
ENCODING 72
SWIDTH 781 0
DWIDTH 14 0
BBX 12 18 1 0
BITMAP
F9F0
F9F0
F9F0
F9F0
F9F0
F9F0
F9F0
FFF0
FFF0
FFF0
FFF0
F9F0
F9F0
F9F0
F9F0
F9F0
F9F0
F9F0
ENDCHAR
STARTCHAR I
ENCODING 73
SWIDTH 390 0
DWIDTH 7 0
BBX 5 18 1 0
BITMAP
F8
F8
F8
F8
F8
F8
F8
F8
F8
F8
F8
F8
F8
F8
F8
F8
F8
F8
ENDCHAR
STARTCHAR J
ENCODING 74
SWIDTH 683 0
DWIDTH 12 0
BBX 10 18 1 0
BITMAP
07C0
07C0
07C0
07C0
07C0
07C0
07C0
07C0
07C0
07C0
07C0
07C0
07C0
07C0
FFC0
FFC0
FFC0
FFC0
ENDCHAR
STARTCHAR K
ENCODING 75
SWIDTH 781 0
DWIDTH 14 0
BBX 12 18 1 0
BITMAP
F9F0
F9F0
F9F0
F9F0
F9F0
F9F0
F9F0
FFC0
FFC0
FFF0
FFF0
F9F0
F9F0
F9F0
F9F0
F9F0
F9F0
F9F0
ENDCHAR
STARTCHAR L
ENCODING 76
SWIDTH 683 0
DWIDTH 12 0
BBX 10 18 1 0
BITMAP
F800
F800
F800
F800
F800
F800
F800
F800
F800
F800
F800
F800
F800
F800
FFC0
FFC0
FFC0
FFC0
ENDCHAR
STARTCHAR M
ENCODING 77
SWIDTH 1074 0
DWIDTH 19 0
BBX 17 18 1 0
BITMAP
F80F80
F80F80
F80F80
F80F80
FE3F80
FE3F80
FE3F80
FFFF80
FFFF80
FFFF80
FFFF80
F9CF80
F9CF80
F9CF80
F80F80
F80F80
F80F80
F80F80
ENDCHAR
STARTCHAR N
ENCODING 78
SWIDTH 878 0
DWIDTH 16 0
BBX 14 18 1 0
BITMAP
F87C
F87C
F87C
F87C
FE7C
FE7C
FE7C
FFFC
FFFC
F9FC
F9FC
F9FC
F9FC
F87C
F87C
F87C
F87C
F87C
ENDCHAR
STARTCHAR O
ENCODING 79
SWIDTH 781 0
DWIDTH 14 0
BBX 12 18 1 0
BITMAP
FFF0
FFF0
FFF0
FFF0
F9F0
F9F0
F9F0
F9F0
F9F0
F9F0
F9F0
F9F0
F9F0
F9F0
FFF0
FFF0
FFF0
FFF0
ENDCHAR
STARTCHAR P
ENCODING 80
SWIDTH 781 0
DWIDTH 14 0
BBX 12 18 1 0
BITMAP
FFF0
FFF0
FFF0
FFF0
F9F0
F9F0
F9F0
FFF0
FFF0
FFF0
FFF0
F800
F800
F800
F800
F800
F800
F800
ENDCHAR
STARTCHAR Q
ENCODING 81
SWIDTH 781 0
DWIDTH 14 0
BBX 12 22 1 -4
BITMAP
FFF0
FFF0
FFF0
FFF0
F9F0
F9F0
F9F0
F9F0
F9F0
F9F0
F9F0
F9F0
F9F0
F9F0
FFF0
FFF0
FFC0
FFC0
07F0
07F0
01F0
01F0
ENDCHAR
STARTCHAR R
ENCODING 82
SWIDTH 781 0
DWIDTH 14 0
BBX 12 18 1 0
BITMAP
FFF0
FFF0
FFF0
FFF0
F9F0
F9F0
F9F0
FFC0
FFC0
FFF0
FFF0
F9F0
F9F0
F9F0
F9F0
F9F0
F9F0
F9F0
ENDCHAR
STARTCHAR S
ENCODING 83
SWIDTH 781 0
DWIDTH 14 0
BBX 12 18 1 0
BITMAP
FFF0
FFF0
FFF0
FFF0
F800
F800
F800
FFF0
FFF0
FFF0
FFF0
01F0
01F0
01F0
FFF0
FFF0
FFF0
FFF0
ENDCHAR
STARTCHAR T
ENCODING 84
SWIDTH 781 0
DWIDTH 14 0
BBX 12 18 1 0
BITMAP
FFF0
FFF0
FFF0
FFF0
1F80
1F80
1F80
1F80
1F80
1F80
1F80
1F80
1F80
1F80
1F80
1F80
1F80
1F80
ENDCHAR
STARTCHAR U
ENCODING 85
SWIDTH 781 0
DWIDTH 14 0
BBX 12 18 1 0
BITMAP
F9F0
F9F0
F9F0
F9F0
F9F0
F9F0
F9F0
F9F0
F9F0
F9F0
F9F0
F9F0
F9F0
F9F0
FFF0
FFF0
FFF0
FFF0
ENDCHAR
STARTCHAR V
ENCODING 86
SWIDTH 781 0
DWIDTH 14 0
BBX 12 18 1 0
BITMAP
F9F0
F9F0
F9F0
F9F0
F9F0
F9F0
F9F0
F9F0
F9F0
F9F0
F9F0
F9F0
F9F0
39C0
3FC0
3FC0
1F80
1F80
ENDCHAR
STARTCHAR W
ENCODING 87
SWIDTH 1074 0
DWIDTH 19 0
BBX 17 18 1 0
BITMAP
F80F80
F80F80
F80F80
F80F80
F9CF80
F9CF80
F9CF80
F9CF80
F9CF80
F9CF80
F9CF80
3FFF00
3FFF00
3FFF00
3E3F00
3E3F00
3E3F00
3E3F00
ENDCHAR
STARTCHAR X
ENCODING 88
SWIDTH 781 0
DWIDTH 14 0
BBX 12 18 1 0
BITMAP
F9F0
F9F0
F9F0
F9F0
F9F0
F9F0
F9F0
3FC0
3FC0
FFF0
FFF0
F9F0
F9F0
F9F0
F9F0
F9F0
F9F0
F9F0
ENDCHAR
STARTCHAR Y
ENCODING 89
SWIDTH 781 0
DWIDTH 14 0
BBX 12 18 1 0
BITMAP
F9F0
F9F0
F9F0
F9F0
F9F0
F9F0
F9F0
FFF0
FFF0
FFF0
FFF0
1F80
1F80
1F80
1F80
1F80
1F80
1F80
ENDCHAR
STARTCHAR Z
ENCODING 90
SWIDTH 781 0
DWIDTH 14 0
BBX 12 18 1 0
BITMAP
FFF0
FFF0
FFF0
FFF0
01F0
01F0
07F0
1FC0
1FC0
3F80
3F80
FE00
FE00
F800
FFF0
FFF0
FFF0
FFF0
ENDCHAR
STARTCHAR bracketleft
ENCODING 91
SWIDTH 488 0
DWIDTH 9 0
BBX 7 18 1 0
BITMAP
FE
FE
FE
FE
F8
F8
F8
F8
F8
F8
F8
F8
F8
F8
FE
FE
FE
FE
ENDCHAR
STARTCHAR bracketright
ENCODING 93
SWIDTH 488 0
DWIDTH 9 0
BBX 7 18 1 0
BITMAP
FE
FE
FE
FE
3E
3E
3E
3E
3E
3E
3E
3E
3E
3E
FE
FE
FE
FE
ENDCHAR
STARTCHAR a
ENCODING 97
SWIDTH 781 0
DWIDTH 14 0
BBX 12 14 1 0
BITMAP
FFF0
FFF0
FFF0
01F0
01F0
FFF0
FFF0
FFF0
FFF0
F9F0
FFF0
FFF0
FFF0
FFF0
ENDCHAR
STARTCHAR b
ENCODING 98
SWIDTH 781 0
DWIDTH 14 0
BBX 12 18 1 0
BITMAP
F800
F800
F800
F800
FFF0
FFF0
FFF0
F9F0
F9F0
F9F0
F9F0
F9F0
F9F0
F9F0
FFF0
FFF0
FFF0
FFF0
ENDCHAR
STARTCHAR c
ENCODING 99
SWIDTH 781 0
DWIDTH 14 0
BBX 12 14 1 0
BITMAP
FFF0
FFF0
FFF0
F800
F800
F800
F800
F800
F800
F800
FFF0
FFF0
FFF0
FFF0
ENDCHAR
STARTCHAR d
ENCODING 100
SWIDTH 781 0
DWIDTH 14 0
BBX 12 18 1 0
BITMAP
01F0
01F0
01F0
01F0
FFF0
FFF0
FFF0
F9F0
F9F0
F9F0
F9F0
F9F0
F9F0
F9F0
FFF0
FFF0
FFF0
FFF0
ENDCHAR
STARTCHAR e
ENCODING 101
SWIDTH 781 0
DWIDTH 14 0
BBX 12 14 1 0
BITMAP
FFF0
FFF0
FFF0
F9F0
F9F0
FFF0
FFF0
FFF0
FFF0
F800
FFF0
FFF0
FFF0
FFF0
ENDCHAR
STARTCHAR f
ENCODING 102
SWIDTH 585 0
DWIDTH 11 0
BBX 9 18 1 0
BITMAP
FF80
FF80
FF80
FF80
F800
F800
FF80
FF80
FF80
F800
F800
F800
F800
F800
F800
F800
F800
F800
ENDCHAR
STARTCHAR g
ENCODING 103
SWIDTH 781 0
DWIDTH 14 0
BBX 12 18 1 -4
BITMAP
FFF0
FFF0
FFF0
F9F0
F9F0
F9F0
F9F0
F9F0
F9F0
FFF0
FFF0
FFF0
01F0
01F0
FFF0
FFF0
FFF0
FFF0
ENDCHAR
STARTCHAR h
ENCODING 104
SWIDTH 781 0
DWIDTH 14 0
BBX 12 18 1 0
BITMAP
F800
F800
F800
F800
FFF0
FFF0
FFF0
F9F0
F9F0
F9F0
F9F0
F9F0
F9F0
F9F0
F9F0
F9F0
F9F0
F9F0
ENDCHAR
STARTCHAR i
ENCODING 105
SWIDTH 390 0
DWIDTH 7 0
BBX 5 18 1 0
BITMAP
F8
F8
F8
F8
00
00
F8
F8
F8
F8
F8
F8
F8
F8
F8
F8
F8
F8
ENDCHAR
STARTCHAR j
ENCODING 106
SWIDTH 585 0
DWIDTH 11 0
BBX 9 22 1 -4
BITMAP
1F80
1F80
1F80
1F80
0000
0000
1F80
1F80
1F80
1F80
1F80
1F80
1F80
1F80
1F80
1F80
1F80
1F80
FF80
FF80
FF80
FF80
ENDCHAR
STARTCHAR k
ENCODING 107
SWIDTH 781 0
DWIDTH 14 0
BBX 12 18 1 0
BITMAP
F800
F800
F800
F800
F9F0
F9F0
F9F0
F9F0
F9F0
FFC0
FFC0
FFF0
FFF0
F9F0
F9F0
F9F0
F9F0
F9F0
ENDCHAR
STARTCHAR l
ENCODING 108
SWIDTH 390 0
DWIDTH 7 0
BBX 5 18 1 0
BITMAP
F8
F8
F8
F8
F8
F8
F8
F8
F8
F8
F8
F8
F8
F8
F8
F8
F8
F8
ENDCHAR
STARTCHAR m
ENCODING 109
SWIDTH 1171 0
DWIDTH 21 0
BBX 19 14 1 0
BITMAP
FFBFE0
FFBFE0
FFFFE0
F9F3E0
F9F3E0
F9F3E0
F9F3E0
F9F3E0
F9F3E0
F9F3E0
F9F3E0
F9F3E0
F9F3E0
F9F3E0
ENDCHAR
STARTCHAR n
ENCODING 110
SWIDTH 781 0
DWIDTH 14 0
BBX 12 14 1 0
BITMAP
FFF0
FFF0
FFF0
F9F0
F9F0
F9F0
F9F0
F9F0
F9F0
F9F0
F9F0
F9F0
F9F0
F9F0
ENDCHAR
STARTCHAR o
ENCODING 111
SWIDTH 781 0
DWIDTH 14 0
BBX 12 14 1 0
BITMAP
FFF0
FFF0
FFF0
F9F0
F9F0
F9F0
F9F0
F9F0
F9F0
F9F0
FFF0
FFF0
FFF0
FFF0
ENDCHAR
STARTCHAR p
ENCODING 112
SWIDTH 781 0
DWIDTH 14 0
BBX 12 19 1 -5
BITMAP
FFF0
FFF0
FFF0
F9F0
F9F0
F9F0
F9F0
F9F0
F9F0
F9F0
FFF0
FFF0
FFF0
FFF0
F800
F800
F800
F800
F800
ENDCHAR
STARTCHAR q
ENCODING 113
SWIDTH 781 0
DWIDTH 14 0
BBX 12 19 1 -5
BITMAP
FFF0
FFF0
FFF0
F9F0
F9F0
F9F0
F9F0
F9F0
F9F0
F9F0
FFF0
FFF0
FFF0
FFF0
01F0
01F0
01F0
01F0
01F0
ENDCHAR
STARTCHAR r
ENCODING 114
SWIDTH 683 0
DWIDTH 12 0
BBX 10 14 1 0
BITMAP
FFC0
FFC0
FFC0
F800
F800
F800
F800
F800
F800
F800
F800
F800
F800
F800
ENDCHAR
STARTCHAR s
ENCODING 115
SWIDTH 781 0
DWIDTH 14 0
BBX 12 14 1 0
BITMAP
FFF0
FFF0
FFF0
F800
F800
FFF0
FFF0
FFF0
FFF0
01F0
FFF0
FFF0
FFF0
FFF0
ENDCHAR
STARTCHAR t
ENCODING 116
SWIDTH 585 0
DWIDTH 11 0
BBX 9 18 1 0
BITMAP
F800
F800
F800
F800
FF80
FF80
FF80
F800
F800
F800
F800
F800
F800
F800
FF80
FF80
FF80
FF80
ENDCHAR
STARTCHAR u
ENCODING 117
SWIDTH 781 0
DWIDTH 14 0
BBX 12 14 1 0
BITMAP
F9F0
F9F0
F9F0
F9F0
F9F0
F9F0
F9F0
F9F0
F9F0
F9F0
FFF0
FFF0
FFF0
FFF0
ENDCHAR
STARTCHAR v
ENCODING 118
SWIDTH 781 0
DWIDTH 14 0
BBX 12 14 1 0
BITMAP
F9F0
F9F0
F9F0
F9F0
F9F0
F9F0
F9F0
F9F0
F9F0
39C0
3FC0
3FC0
1F80
1F80
ENDCHAR
STARTCHAR w
ENCODING 119
SWIDTH 1074 0
DWIDTH 19 0
BBX 17 14 1 0
BITMAP
F80F80
F80F80
F9CF80
F9CF80
F9CF80
F9CF80
F9CF80
F9CF80
F9CF80
FFFF80
3FFF00
3FFF00
3E3F00
3E3F00
ENDCHAR
STARTCHAR x
ENCODING 120
SWIDTH 781 0
DWIDTH 14 0
BBX 12 14 1 0
BITMAP
F9F0
F9F0
F9F0
F9F0
F9F0
3FC0
3FC0
FFF0
FFF0
F9F0
F9F0
F9F0
F9F0
F9F0
ENDCHAR
STARTCHAR y
ENCODING 121
SWIDTH 781 0
DWIDTH 14 0
BBX 12 18 1 -4
BITMAP
F9F0
F9F0
F9F0
F9F0
F9F0
F9F0
F9F0
F9F0
F9F0
FFF0
FFF0
FFF0
01F0
01F0
FFF0
FFF0
FFF0
FFF0
ENDCHAR
STARTCHAR z
ENCODING 122
SWIDTH 781 0
DWIDTH 14 0
BBX 12 14 1 0
BITMAP
FFF0
FFF0
FFF0
07F0
07F0
1FC0
1FC0
3F80
3F80
FE00
FFF0
FFF0
FFF0
FFF0
ENDCHAR
STARTCHAR uni00A0
ENCODING 160
SWIDTH 390 0
DWIDTH 7 0
BBX 1 1 0 0
BITMAP
00
ENDCHAR
STARTCHAR exclamdown
ENCODING 161
SWIDTH 390 0
DWIDTH 7 0
BBX 5 18 1 0
BITMAP
F8
F8
F8
F8
00
00
F8
F8
F8
F8
F8
F8
F8
F8
F8
F8
F8
F8
ENDCHAR
STARTCHAR questiondown
ENCODING 191
SWIDTH 781 0
DWIDTH 14 0
BBX 12 18 1 0
BITMAP
1F80
1F80
1F80
1F80
0000
0000
1F80
3F80
3F80
FE00
FE00
F800
F800
F800
FFF0
FFF0
3FF0
3FF0
ENDCHAR
STARTCHAR Agrave
ENCODING 192
SWIDTH 781 0
DWIDTH 14 0
BBX 12 23 1 0
BITMAP
3E00
3E00
1F80
1F80
0000
FFF0
FFF0
FFF0
FFF0
F9F0
F9F0
F9F0
FFF0
FFF0
FFF0
FFF0
F9F0
F9F0
F9F0
F9F0
F9F0
F9F0
F9F0
ENDCHAR
STARTCHAR Aacute
ENCODING 193
SWIDTH 781 0
DWIDTH 14 0
BBX 12 23 1 0
BITMAP
07C0
07C0
1F80
1F80
0000
FFF0
FFF0
FFF0
FFF0
F9F0
F9F0
F9F0
FFF0
FFF0
FFF0
FFF0
F9F0
F9F0
F9F0
F9F0
F9F0
F9F0
F9F0
ENDCHAR
STARTCHAR Acircumflex
ENCODING 194
SWIDTH 781 0
DWIDTH 14 0
BBX 12 23 1 0
BITMAP
3FC0
3FC0
F9F0
F9F0
0000
FFF0
FFF0
FFF0
FFF0
F9F0
F9F0
F9F0
FFF0
FFF0
FFF0
FFF0
F9F0
F9F0
F9F0
F9F0
F9F0
F9F0
F9F0
ENDCHAR
STARTCHAR Atilde
ENCODING 195
SWIDTH 781 0
DWIDTH 14 0
BBX 12 23 1 0
BITMAP
FE70
FE70
E7F0
E7F0
0000
FFF0
FFF0
FFF0
FFF0
F9F0
F9F0
F9F0
FFF0
FFF0
FFF0
FFF0
F9F0
F9F0
F9F0
F9F0
F9F0
F9F0
F9F0
ENDCHAR
STARTCHAR Adieresis
ENCODING 196
SWIDTH 781 0
DWIDTH 14 0
BBX 12 23 1 0
BITMAP
F9F0
F9F0
F9F0
F9F0
0000
FFF0
FFF0
FFF0
FFF0
F9F0
F9F0
F9F0
FFF0
FFF0
FFF0
FFF0
F9F0
F9F0
F9F0
F9F0
F9F0
F9F0
F9F0
ENDCHAR
STARTCHAR Aring
ENCODING 197
SWIDTH 781 0
DWIDTH 14 0
BBX 12 23 1 0
BITMAP
1F80
1F80
1F80
1F80
0000
FFF0
FFF0
FFF0
FFF0
F9F0
F9F0
F9F0
FFF0
FFF0
FFF0
FFF0
F9F0
F9F0
F9F0
F9F0
F9F0
F9F0
F9F0
ENDCHAR
STARTCHAR AE
ENCODING 198
SWIDTH 1171 0
DWIDTH 21 0
BBX 19 18 1 0
BITMAP
FFFFE0
FFFFE0
FFFFE0
FFFFE0
F9F000
F9F000
F9F000
FFFFE0
FFFFE0
FFFFE0
FFFFE0
F9F000
F9F000
F9F000
F9FFE0
F9FFE0
F9FFE0
F9FFE0
ENDCHAR
STARTCHAR Ccedilla
ENCODING 199
SWIDTH 781 0
DWIDTH 14 0
BBX 12 23 1 -5
BITMAP
FFF0
FFF0
FFF0
FFF0
F800
F800
F800
F800
F800
F800
F800
F800
F800
F800
FFF0
FFF0
FFF0
FFF0
0000
0000
07C0
07C0
1F80
ENDCHAR
STARTCHAR Egrave
ENCODING 200
SWIDTH 781 0
DWIDTH 14 0
BBX 12 23 1 0
BITMAP
3E00
3E00
1F80
1F80
0000
FFF0
FFF0
FFF0
FFF0
F800
F800
F800
FFF0
FFF0
FFF0
FFF0
F800
F800
F800
FFF0
FFF0
FFF0
FFF0
ENDCHAR
STARTCHAR Eacute
ENCODING 201
SWIDTH 781 0
DWIDTH 14 0
BBX 12 23 1 0
BITMAP
07C0
07C0
1F80
1F80
0000
FFF0
FFF0
FFF0
FFF0
F800
F800
F800
FFF0
FFF0
FFF0
FFF0
F800
F800
F800
FFF0
FFF0
FFF0
FFF0
ENDCHAR
STARTCHAR Ecircumflex
ENCODING 202
SWIDTH 781 0
DWIDTH 14 0
BBX 12 23 1 0
BITMAP
3FC0
3FC0
F9F0
F9F0
0000
FFF0
FFF0
FFF0
FFF0
F800
F800
F800
FFF0
FFF0
FFF0
FFF0
F800
F800
F800
FFF0
FFF0
FFF0
FFF0
ENDCHAR
STARTCHAR Edieresis
ENCODING 203
SWIDTH 781 0
DWIDTH 14 0
BBX 12 23 1 0
BITMAP
F9F0
F9F0
F9F0
F9F0
0000
FFF0
FFF0
FFF0
FFF0
F800
F800
F800
FFF0
FFF0
FFF0
FFF0
F800
F800
F800
FFF0
FFF0
FFF0
FFF0
ENDCHAR
STARTCHAR Igrave
ENCODING 204
SWIDTH 390 0
DWIDTH 7 0
BBX 7 23 -1 0
BITMAP
F8
F8
3E
3E
00
3E
3E
3E
3E
3E
3E
3E
3E
3E
3E
3E
3E
3E
3E
3E
3E
3E
3E
ENDCHAR
STARTCHAR Iacute
ENCODING 205
SWIDTH 390 0
DWIDTH 7 0
BBX 7 23 1 0
BITMAP
3E
3E
F8
F8
00
F8
F8
F8
F8
F8
F8
F8
F8
F8
F8
F8
F8
F8
F8
F8
F8
F8
F8
ENDCHAR
STARTCHAR Icircumflex
ENCODING 206
SWIDTH 781 0
DWIDTH 14 0
BBX 12 23 1 0
BITMAP
3FC0
3FC0
F9F0
F9F0
0000
1F80
1F80
1F80
1F80
1F80
1F80
1F80
1F80
1F80
1F80
1F80
1F80
1F80
1F80
1F80
1F80
1F80
1F80
ENDCHAR
STARTCHAR Idieresis
ENCODING 207
SWIDTH 781 0
DWIDTH 14 0
BBX 12 23 1 0
BITMAP
F9F0
F9F0
F9F0
F9F0
0000
1F80
1F80
1F80
1F80
1F80
1F80
1F80
1F80
1F80
1F80
1F80
1F80
1F80
1F80
1F80
1F80
1F80
1F80
ENDCHAR
STARTCHAR Ntilde
ENCODING 209
SWIDTH 878 0
DWIDTH 16 0
BBX 14 23 1 0
BITMAP
FFBC
FFBC
E7FC
E7FC
0000
F87C
F87C
F87C
F87C
FE7C
FE7C
FE7C
FFFC
FFFC
F9FC
F9FC
F9FC
F9FC
F87C
F87C
F87C
F87C
F87C
ENDCHAR
STARTCHAR Ograve
ENCODING 210
SWIDTH 781 0
DWIDTH 14 0
BBX 12 23 1 0
BITMAP
3E00
3E00
1F80
1F80
0000
FFF0
FFF0
FFF0
FFF0
F9F0
F9F0
F9F0
F9F0
F9F0
F9F0
F9F0
F9F0
F9F0
F9F0
FFF0
FFF0
FFF0
FFF0
ENDCHAR
STARTCHAR Oacute
ENCODING 211
SWIDTH 781 0
DWIDTH 14 0
BBX 12 23 1 0
BITMAP
07C0
07C0
1F80
1F80
0000
FFF0
FFF0
FFF0
FFF0
F9F0
F9F0
F9F0
F9F0
F9F0
F9F0
F9F0
F9F0
F9F0
F9F0
FFF0
FFF0
FFF0
FFF0
ENDCHAR
STARTCHAR Ocircumflex
ENCODING 212
SWIDTH 781 0
DWIDTH 14 0
BBX 12 23 1 0
BITMAP
3FC0
3FC0
F9F0
F9F0
0000
FFF0
FFF0
FFF0
FFF0
F9F0
F9F0
F9F0
F9F0
F9F0
F9F0
F9F0
F9F0
F9F0
F9F0
FFF0
FFF0
FFF0
FFF0
ENDCHAR
STARTCHAR Otilde
ENCODING 213
SWIDTH 781 0
DWIDTH 14 0
BBX 12 23 1 0
BITMAP
FE70
FE70
E7F0
E7F0
0000
FFF0
FFF0
FFF0
FFF0
F9F0
F9F0
F9F0
F9F0
F9F0
F9F0
F9F0
F9F0
F9F0
F9F0
FFF0
FFF0
FFF0
FFF0
ENDCHAR
STARTCHAR Odieresis
ENCODING 214
SWIDTH 781 0
DWIDTH 14 0
BBX 12 23 1 0
BITMAP
F9F0
F9F0
F9F0
F9F0
0000
FFF0
FFF0
FFF0
FFF0
F9F0
F9F0
F9F0
F9F0
F9F0
F9F0
F9F0
F9F0
F9F0
F9F0
FFF0
FFF0
FFF0
FFF0
ENDCHAR
STARTCHAR Oslash
ENCODING 216
SWIDTH 878 0
DWIDTH 16 0
BBX 14 18 1 0
BITMAP
FFFC
FFFC
FFFC
FFFC
F87C
F87C
F9FC
FFFC
FFFC
FFFC
FFFC
FE7C
FE7C
F87C
FFFC
FFFC
FFFC
FFFC
ENDCHAR
STARTCHAR Ugrave
ENCODING 217
SWIDTH 781 0
DWIDTH 14 0
BBX 12 23 1 0
BITMAP
3E00
3E00
1F80
1F80
0000
F9F0
F9F0
F9F0
F9F0
F9F0
F9F0
F9F0
F9F0
F9F0
F9F0
F9F0
F9F0
F9F0
F9F0
FFF0
FFF0
FFF0
FFF0
ENDCHAR
STARTCHAR Uacute
ENCODING 218
SWIDTH 781 0
DWIDTH 14 0
BBX 12 23 1 0
BITMAP
07C0
07C0
1F80
1F80
0000
F9F0
F9F0
F9F0
F9F0
F9F0
F9F0
F9F0
F9F0
F9F0
F9F0
F9F0
F9F0
F9F0
F9F0
FFF0
FFF0
FFF0
FFF0
ENDCHAR
STARTCHAR Ucircumflex
ENCODING 219
SWIDTH 781 0
DWIDTH 14 0
BBX 12 23 1 0
BITMAP
3FC0
3FC0
F9F0
F9F0
0000
F9F0
F9F0
F9F0
F9F0
F9F0
F9F0
F9F0
F9F0
F9F0
F9F0
F9F0
F9F0
F9F0
F9F0
FFF0
FFF0
FFF0
FFF0
ENDCHAR
STARTCHAR Udieresis
ENCODING 220
SWIDTH 781 0
DWIDTH 14 0
BBX 12 23 1 0
BITMAP
F9F0
F9F0
F9F0
F9F0
0000
F9F0
F9F0
F9F0
F9F0
F9F0
F9F0
F9F0
F9F0
F9F0
F9F0
F9F0
F9F0
F9F0
F9F0
FFF0
FFF0
FFF0
FFF0
ENDCHAR
STARTCHAR Yacute
ENCODING 221
SWIDTH 781 0
DWIDTH 14 0
BBX 12 23 1 0
BITMAP
07C0
07C0
1F80
1F80
0000
F9F0
F9F0
F9F0
F9F0
F9F0
F9F0
F9F0
FFF0
FFF0
FFF0
FFF0
1F80
1F80
1F80
1F80
1F80
1F80
1F80
ENDCHAR
STARTCHAR Thorn
ENCODING 222
SWIDTH 781 0
DWIDTH 14 0
BBX 12 18 1 0
BITMAP
F800
F800
F800
F800
FFF0
FFF0
FFF0
F9F0
F9F0
F9F0
F9F0
FFF0
FFF0
FFF0
F800
F800
F800
F800
ENDCHAR
STARTCHAR germandbls
ENCODING 223
SWIDTH 878 0
DWIDTH 16 0
BBX 14 18 1 0
BITMAP
FFFC
FFFC
FFFC
FFFC
F87C
F87C
F87C
F9F0
F9F0
F9FC
F9FC
F87C
F87C
F87C
F9FC
F9FC
F9FC
F9FC
ENDCHAR
STARTCHAR agrave
ENCODING 224
SWIDTH 781 0
DWIDTH 14 0
BBX 12 19 1 0
BITMAP
3E00
1F80
1F80
0000
0000
FFF0
FFF0
FFF0
01F0
01F0
FFF0
FFF0
FFF0
FFF0
F9F0
FFF0
FFF0
FFF0
FFF0
ENDCHAR
STARTCHAR aacute
ENCODING 225
SWIDTH 781 0
DWIDTH 14 0
BBX 12 19 1 0
BITMAP
07C0
1F80
1F80
0000
0000
FFF0
FFF0
FFF0
01F0
01F0
FFF0
FFF0
FFF0
FFF0
F9F0
FFF0
FFF0
FFF0
FFF0
ENDCHAR
STARTCHAR acircumflex
ENCODING 226
SWIDTH 781 0
DWIDTH 14 0
BBX 12 19 1 0
BITMAP
3FC0
F9F0
F9F0
0000
0000
FFF0
FFF0
FFF0
01F0
01F0
FFF0
FFF0
FFF0
FFF0
F9F0
FFF0
FFF0
FFF0
FFF0
ENDCHAR
STARTCHAR atilde
ENCODING 227
SWIDTH 781 0
DWIDTH 14 0
BBX 12 19 1 0
BITMAP
FE70
E7F0
E7F0
0000
0000
FFF0
FFF0
FFF0
01F0
01F0
FFF0
FFF0
FFF0
FFF0
F9F0
FFF0
FFF0
FFF0
FFF0
ENDCHAR
STARTCHAR adieresis
ENCODING 228
SWIDTH 781 0
DWIDTH 14 0
BBX 12 19 1 0
BITMAP
F9F0
F9F0
F9F0
0000
0000
FFF0
FFF0
FFF0
01F0
01F0
FFF0
FFF0
FFF0
FFF0
F9F0
FFF0
FFF0
FFF0
FFF0
ENDCHAR
STARTCHAR aring
ENCODING 229
SWIDTH 781 0
DWIDTH 14 0
BBX 12 19 1 0
BITMAP
1F80
1F80
1F80
0000
0000
FFF0
FFF0
FFF0
01F0
01F0
FFF0
FFF0
FFF0
FFF0
F9F0
FFF0
FFF0
FFF0
FFF0
ENDCHAR
STARTCHAR ae
ENCODING 230
SWIDTH 1171 0
DWIDTH 21 0
BBX 19 14 1 0
BITMAP
FFFFE0
FFFFE0
FFFFE0
01F3E0
01F3E0
FFFFE0
FFFFE0
FFFFE0
FFFFE0
F9F000
FFFFE0
FFFFE0
FFFFE0
FFFFE0
ENDCHAR
STARTCHAR ccedilla
ENCODING 231
SWIDTH 781 0
DWIDTH 14 0
BBX 12 19 1 -5
BITMAP
FFF0
FFF0
FFF0
F800
F800
F800
F800
F800
F800
F800
FFF0
FFF0
FFF0
FFF0
0000
0000
07C0
07C0
1F80
ENDCHAR
STARTCHAR egrave
ENCODING 232
SWIDTH 781 0
DWIDTH 14 0
BBX 12 19 1 0
BITMAP
3E00
1F80
1F80
0000
0000
FFF0
FFF0
FFF0
F9F0
F9F0
FFF0
FFF0
FFF0
FFF0
F800
FFF0
FFF0
FFF0
FFF0
ENDCHAR
STARTCHAR eacute
ENCODING 233
SWIDTH 781 0
DWIDTH 14 0
BBX 12 19 1 0
BITMAP
07C0
1F80
1F80
0000
0000
FFF0
FFF0
FFF0
F9F0
F9F0
FFF0
FFF0
FFF0
FFF0
F800
FFF0
FFF0
FFF0
FFF0
ENDCHAR
STARTCHAR ecircumflex
ENCODING 234
SWIDTH 781 0
DWIDTH 14 0
BBX 12 19 1 0
BITMAP
3FC0
F9F0
F9F0
0000
0000
FFF0
FFF0
FFF0
F9F0
F9F0
FFF0
FFF0
FFF0
FFF0
F800
FFF0
FFF0
FFF0
FFF0
ENDCHAR
STARTCHAR edieresis
ENCODING 235
SWIDTH 781 0
DWIDTH 14 0
BBX 12 19 1 0
BITMAP
F9F0
F9F0
F9F0
0000
0000
FFF0
FFF0
FFF0
F9F0
F9F0
FFF0
FFF0
FFF0
FFF0
F800
FFF0
FFF0
FFF0
FFF0
ENDCHAR
STARTCHAR igrave
ENCODING 236
SWIDTH 390 0
DWIDTH 7 0
BBX 7 19 -1 0
BITMAP
F8
3E
3E
00
00
3E
3E
3E
3E
3E
3E
3E
3E
3E
3E
3E
3E
3E
3E
ENDCHAR
STARTCHAR iacute
ENCODING 237
SWIDTH 390 0
DWIDTH 7 0
BBX 7 19 1 0
BITMAP
3E
F8
F8
00
00
F8
F8
F8
F8
F8
F8
F8
F8
F8
F8
F8
F8
F8
F8
ENDCHAR
STARTCHAR icircumflex
ENCODING 238
SWIDTH 781 0
DWIDTH 14 0
BBX 12 19 1 0
BITMAP
3FC0
F9F0
F9F0
0000
0000
1F80
1F80
1F80
1F80
1F80
1F80
1F80
1F80
1F80
1F80
1F80
1F80
1F80
1F80
ENDCHAR
STARTCHAR idieresis
ENCODING 239
SWIDTH 781 0
DWIDTH 14 0
BBX 12 19 1 0
BITMAP
F9F0
F9F0
F9F0
0000
0000
1F80
1F80
1F80
1F80
1F80
1F80
1F80
1F80
1F80
1F80
1F80
1F80
1F80
1F80
ENDCHAR
STARTCHAR ntilde
ENCODING 241
SWIDTH 781 0
DWIDTH 14 0
BBX 12 19 1 0
BITMAP
FE70
E7F0
E7F0
0000
0000
FFF0
FFF0
FFF0
F9F0
F9F0
F9F0
F9F0
F9F0
F9F0
F9F0
F9F0
F9F0
F9F0
F9F0
ENDCHAR
STARTCHAR ograve
ENCODING 242
SWIDTH 781 0
DWIDTH 14 0
BBX 12 19 1 0
BITMAP
3E00
1F80
1F80
0000
0000
FFF0
FFF0
FFF0
F9F0
F9F0
F9F0
F9F0
F9F0
F9F0
F9F0
FFF0
FFF0
FFF0
FFF0
ENDCHAR
STARTCHAR oacute
ENCODING 243
SWIDTH 781 0
DWIDTH 14 0
BBX 12 19 1 0
BITMAP
07C0
1F80
1F80
0000
0000
FFF0
FFF0
FFF0
F9F0
F9F0
F9F0
F9F0
F9F0
F9F0
F9F0
FFF0
FFF0
FFF0
FFF0
ENDCHAR
STARTCHAR ocircumflex
ENCODING 244
SWIDTH 781 0
DWIDTH 14 0
BBX 12 19 1 0
BITMAP
3FC0
F9F0
F9F0
0000
0000
FFF0
FFF0
FFF0
F9F0
F9F0
F9F0
F9F0
F9F0
F9F0
F9F0
FFF0
FFF0
FFF0
FFF0
ENDCHAR
STARTCHAR otilde
ENCODING 245
SWIDTH 781 0
DWIDTH 14 0
BBX 12 19 1 0
BITMAP
FE70
E7F0
E7F0
0000
0000
FFF0
FFF0
FFF0
F9F0
F9F0
F9F0
F9F0
F9F0
F9F0
F9F0
FFF0
FFF0
FFF0
FFF0
ENDCHAR
STARTCHAR odieresis
ENCODING 246
SWIDTH 781 0
DWIDTH 14 0
BBX 12 19 1 0
BITMAP
F9F0
F9F0
F9F0
0000
0000
FFF0
FFF0
FFF0
F9F0
F9F0
F9F0
F9F0
F9F0
F9F0
F9F0
FFF0
FFF0
FFF0
FFF0
ENDCHAR
STARTCHAR oslash
ENCODING 248
SWIDTH 878 0
DWIDTH 16 0
BBX 14 14 1 0
BITMAP
FFFC
FFFC
FFFC
F87C
F87C
F9FC
F9FC
FE7C
FE7C
F87C
FFFC
FFFC
FFFC
FFFC
ENDCHAR
STARTCHAR ugrave
ENCODING 249
SWIDTH 781 0
DWIDTH 14 0
BBX 12 19 1 0
BITMAP
3E00
1F80
1F80
0000
0000
F9F0
F9F0
F9F0
F9F0
F9F0
F9F0
F9F0
F9F0
F9F0
F9F0
FFF0
FFF0
FFF0
FFF0
ENDCHAR
STARTCHAR uacute
ENCODING 250
SWIDTH 781 0
DWIDTH 14 0
BBX 12 19 1 0
BITMAP
07C0
1F80
1F80
0000
0000
F9F0
F9F0
F9F0
F9F0
F9F0
F9F0
F9F0
F9F0
F9F0
F9F0
FFF0
FFF0
FFF0
FFF0
ENDCHAR
STARTCHAR ucircumflex
ENCODING 251
SWIDTH 781 0
DWIDTH 14 0
BBX 12 19 1 0
BITMAP
3FC0
F9F0
F9F0
0000
0000
F9F0
F9F0
F9F0
F9F0
F9F0
F9F0
F9F0
F9F0
F9F0
F9F0
FFF0
FFF0
FFF0
FFF0
ENDCHAR
STARTCHAR udieresis
ENCODING 252
SWIDTH 781 0
DWIDTH 14 0
BBX 12 19 1 0
BITMAP
F9F0
F9F0
F9F0
0000
0000
F9F0
F9F0
F9F0
F9F0
F9F0
F9F0
F9F0
F9F0
F9F0
F9F0
FFF0
FFF0
FFF0
FFF0
ENDCHAR
STARTCHAR yacute
ENCODING 253
SWIDTH 781 0
DWIDTH 14 0
BBX 12 23 1 -4
BITMAP
07C0
1F80
1F80
0000
0000
F9F0
F9F0
F9F0
F9F0
F9F0
F9F0
F9F0
F9F0
F9F0
FFF0
FFF0
FFF0
01F0
01F0
FFF0
FFF0
FFF0
FFF0
ENDCHAR
STARTCHAR thorn
ENCODING 254
SWIDTH 781 0
DWIDTH 14 0
BBX 12 22 1 -4
BITMAP
F800
F800
F800
F800
FFF0
FFF0
FFF0
F9F0
F9F0
F9F0
F9F0
F9F0
F9F0
F9F0
FFF0
FFF0
FFF0
FFF0
F800
F800
F800
F800
ENDCHAR
STARTCHAR ydieresis
ENCODING 255
SWIDTH 781 0
DWIDTH 14 0
BBX 12 23 1 -4
BITMAP
F9F0
F9F0
F9F0
0000
0000
F9F0
F9F0
F9F0
F9F0
F9F0
F9F0
F9F0
F9F0
F9F0
FFF0
FFF0
FFF0
01F0
01F0
FFF0
FFF0
FFF0
FFF0
ENDCHAR
STARTCHAR Ccaron
ENCODING 268
SWIDTH 781 0
DWIDTH 14 0
BBX 12 18 1 0
BITMAP
FFF0
FFF0
FFF0
FFF0
F800
F800
F800
F800
F800
F800
F800
F800
F800
F800
FFF0
FFF0
FFF0
FFF0
ENDCHAR
STARTCHAR ccaron
ENCODING 269
SWIDTH 781 0
DWIDTH 14 0
BBX 12 14 1 0
BITMAP
FFF0
FFF0
FFF0
F800
F800
F800
F800
F800
F800
F800
FFF0
FFF0
FFF0
FFF0
ENDCHAR
STARTCHAR Dcaron
ENCODING 270
SWIDTH 781 0
DWIDTH 14 0
BBX 12 23 1 0
BITMAP
F9F0
F9F0
3FC0
3FC0
0000
FFC0
FFC0
FFF0
FFF0
F9F0
F9F0
F9F0
F9F0
F9F0
F9F0
F9F0
F9F0
F9F0
F9F0
FFF0
FFF0
FFC0
FFC0
ENDCHAR
STARTCHAR dcaron
ENCODING 271
SWIDTH 1171 0
DWIDTH 21 0
BBX 19 18 1 0
BITMAP
01F3E0
01F3E0
01F3E0
01F3E0
FFF0E0
FFF0E0
FFF380
F9F000
F9F000
F9F000
F9F000
F9F000
F9F000
F9F000
FFF000
FFF000
FFF000
FFF000
ENDCHAR
STARTCHAR Ecaron
ENCODING 282
SWIDTH 781 0
DWIDTH 14 0
BBX 12 23 1 0
BITMAP
F9F0
F9F0
3FC0
3FC0
0000
FFF0
FFF0
FFF0
FFF0
F800
F800
F800
FFF0
FFF0
FFF0
FFF0
F800
F800
F800
FFF0
FFF0
FFF0
FFF0
ENDCHAR
STARTCHAR ecaron
ENCODING 283
SWIDTH 781 0
DWIDTH 14 0
BBX 12 19 1 0
BITMAP
F9F0
3FC0
3FC0
0000
0000
FFF0
FFF0
FFF0
F9F0
F9F0
FFF0
FFF0
FFF0
FFF0
F800
FFF0
FFF0
FFF0
FFF0
ENDCHAR
STARTCHAR dotlessi
ENCODING 305
SWIDTH 390 0
DWIDTH 7 0
BBX 5 14 1 0
BITMAP
F8
F8
F8
F8
F8
F8
F8
F8
F8
F8
F8
F8
F8
F8
ENDCHAR
STARTCHAR Ncaron
ENCODING 327
SWIDTH 878 0
DWIDTH 16 0
BBX 14 23 1 0
BITMAP
F87C
F87C
3FF0
3FF0
0000
F87C
F87C
F87C
F87C
FE7C
FE7C
FE7C
FFFC
FFFC
FFFC
FFFC
F9FC
F9FC
F9FC
F87C
F87C
F87C
F87C
ENDCHAR
STARTCHAR ncaron
ENCODING 328
SWIDTH 781 0
DWIDTH 14 0
BBX 12 19 1 0
BITMAP
F9F0
3FC0
3FC0
0000
0000
FFF0
FFF0
FFF0
F9F0
F9F0
F9F0
F9F0
F9F0
F9F0
F9F0
F9F0
F9F0
F9F0
F9F0
ENDCHAR
STARTCHAR OE
ENCODING 338
SWIDTH 1171 0
DWIDTH 21 0
BBX 19 18 1 0
BITMAP
FFFFE0
FFFFE0
FFFFE0
FFFFE0
F9F000
F9F000
F9F000
F9FFE0
F9FFE0
F9FFE0
F9FFE0
F9F000
F9F000
F9F000
FFFFE0
FFFFE0
FFFFE0
FFFFE0
ENDCHAR
STARTCHAR oe
ENCODING 339
SWIDTH 1171 0
DWIDTH 21 0
BBX 19 14 1 0
BITMAP
FFFFE0
FFFFE0
FFFFE0
F9F3E0
F9F3E0
F9FFE0
F9FFE0
F9FFE0
F9FFE0
F9F000
FFFFE0
FFFFE0
FFFFE0
FFFFE0
ENDCHAR
STARTCHAR Rcaron
ENCODING 344
SWIDTH 781 0
DWIDTH 14 0
BBX 12 23 1 0
BITMAP
F9F0
F9F0
3FC0
3FC0
0000
FFF0
FFF0
FFF0
FFF0
F9F0
F9F0
F9F0
FFC0
FFC0
FFF0
FFF0
F9F0
F9F0
F9F0
F9F0
F9F0
F9F0
F9F0
ENDCHAR
STARTCHAR rcaron
ENCODING 345
SWIDTH 683 0
DWIDTH 12 0
BBX 10 19 1 0
BITMAP
E1C0
3F80
3F80
0000
0000
FFC0
FFC0
FFC0
F800
F800
F800
F800
F800
F800
F800
F800
F800
F800
F800
ENDCHAR
STARTCHAR Scaron
ENCODING 352
SWIDTH 781 0
DWIDTH 14 0
BBX 12 23 1 0
BITMAP
F9F0
F9F0
3FC0
3FC0
0000
FFF0
FFF0
FFF0
FFF0
F800
F800
F800
FFF0
FFF0
FFF0
FFF0
01F0
01F0
01F0
FFF0
FFF0
FFF0
FFF0
ENDCHAR
STARTCHAR scaron
ENCODING 353
SWIDTH 781 0
DWIDTH 14 0
BBX 12 19 1 0
BITMAP
F9F0
3FC0
3FC0
0000
0000
FFF0
FFF0
FFF0
F800
F800
FFF0
FFF0
FFF0
FFF0
01F0
FFF0
FFF0
FFF0
FFF0
ENDCHAR
STARTCHAR Tcaron
ENCODING 356
SWIDTH 781 0
DWIDTH 14 0
BBX 12 23 1 0
BITMAP
F9F0
F9F0
3FC0
3FC0
0000
FFF0
FFF0
FFF0
FFF0
1F80
1F80
1F80
1F80
1F80
1F80
1F80
1F80
1F80
1F80
1F80
1F80
1F80
1F80
ENDCHAR
STARTCHAR tcaron
ENCODING 357
SWIDTH 976 0
DWIDTH 18 0
BBX 16 18 1 0
BITMAP
F83F
F83F
F83F
F83F
FF8F
FF8F
FFBC
F800
F800
F800
F800
F800
F800
F800
FF80
FF80
FF80
FF80
ENDCHAR
STARTCHAR Uring
ENCODING 366
SWIDTH 781 0
DWIDTH 14 0
BBX 12 23 1 0
BITMAP
1F80
1F80
1F80
1F80
0000
F9F0
F9F0
F9F0
F9F0
F9F0
F9F0
F9F0
F9F0
F9F0
F9F0
F9F0
F9F0
F9F0
F9F0
FFF0
FFF0
FFF0
FFF0
ENDCHAR
STARTCHAR uring
ENCODING 367
SWIDTH 781 0
DWIDTH 14 0
BBX 12 19 1 0
BITMAP
1F80
1F80
1F80
0000
0000
F9F0
F9F0
F9F0
F9F0
F9F0
F9F0
F9F0
F9F0
F9F0
F9F0
FFF0
FFF0
FFF0
FFF0
ENDCHAR
STARTCHAR Ydieresis
ENCODING 376
SWIDTH 781 0
DWIDTH 14 0
BBX 12 23 1 0
BITMAP
F9F0
F9F0
F9F0
F9F0
0000
F9F0
F9F0
F9F0
F9F0
F9F0
F9F0
F9F0
FFF0
FFF0
FFF0
FFF0
1F80
1F80
1F80
1F80
1F80
1F80
1F80
ENDCHAR
STARTCHAR Zcaron
ENCODING 381
SWIDTH 781 0
DWIDTH 14 0
BBX 12 23 1 0
BITMAP
F9F0
F9F0
3FC0
3FC0
0000
FFF0
FFF0
FFF0
FFF0
01F0
01F0
07F0
1FC0
1FC0
3F80
3F80
FE00
FE00
F800
FFF0
FFF0
FFF0
FFF0
ENDCHAR
STARTCHAR zcaron
ENCODING 382
SWIDTH 781 0
DWIDTH 14 0
BBX 12 19 1 0
BITMAP
F9F0
3FC0
3FC0
0000
0000
FFF0
FFF0
FFF0
07F0
07F0
1FC0
1FC0
3F80
3F80
FE00
FFF0
FFF0
FFF0
FFF0
ENDCHAR
STARTCHAR florin
ENCODING 402
SWIDTH 585 0
DWIDTH 11 0
BBX 9 22 1 -4
BITMAP
FF80
FF80
FF80
FF80
F800
F800
FF80
FF80
FF80
F800
F800
F800
F800
F800
F800
F800
F800
F800
F800
F800
F800
F800
ENDCHAR
STARTCHAR endash
ENCODING 8211
SWIDTH 488 0
DWIDTH 9 0
BBX 7 3 1 7
BITMAP
FE
FE
FE
ENDCHAR
STARTCHAR emdash
ENCODING 8212
SWIDTH 683 0
DWIDTH 12 0
BBX 10 3 1 7
BITMAP
FFC0
FFC0
FFC0
ENDCHAR
STARTCHAR quoteleft
ENCODING 8216
SWIDTH 390 0
DWIDTH 7 0
BBX 5 7 1 11
BITMAP
F8
F8
F8
F8
E0
E0
38
ENDCHAR
STARTCHAR quoteright
ENCODING 8217
SWIDTH 390 0
DWIDTH 7 0
BBX 5 7 1 11
BITMAP
F8
F8
F8
F8
38
38
E0
ENDCHAR
STARTCHAR quotedblleft
ENCODING 8220
SWIDTH 781 0
DWIDTH 14 0
BBX 12 7 1 11
BITMAP
F9F0
F9F0
F9F0
F9F0
E1C0
E1C0
3870
ENDCHAR
STARTCHAR quotedblright
ENCODING 8221
SWIDTH 781 0
DWIDTH 14 0
BBX 12 7 1 11
BITMAP
F9F0
F9F0
F9F0
F9F0
3870
3870
E1C0
ENDCHAR
STARTCHAR ellipsis
ENCODING 8230
SWIDTH 1171 0
DWIDTH 21 0
BBX 19 4 1 0
BITMAP
F9F3E0
F9F3E0
F9F3E0
F9F3E0
ENDCHAR
STARTCHAR .notdef
ENCODING -1
SWIDTH 781 0
DWIDTH 14 0
BBX 12 18 1 0
BITMAP
FFF0
FFF0
C030
C030
C030
C030
C030
C030
C030
C030
C030
C030
C030
C030
C030
C030
FFF0
FFF0
ENDCHAR
ENDFONT
